<svg width="371" height="217" viewBox="0 0 371 217" fill="none" xmlns="http://www.w3.org/2000/svg">
<g clip-path="url(#clip0_535_1678)">
<path d="M369.805 193.737C368.822 199.953 365.652 205.613 360.867 209.7C356.082 213.787 349.995 216.031 343.702 216.03L268.826 215.996L203.216 215.965H201.246H187.196H185.384H171.984H169.692L151.015 215.957H147.722L132.489 215.95H128.347L102.094 215.937H97.5086L77.2284 215.928H72.9041L41.6336 215.89C36.6966 215.889 31.8524 214.549 27.6172 212.012C23.382 209.474 19.9146 205.836 17.5846 201.483C15.559 197.692 13.3747 193.252 11.2581 188.292C7.8757 180.35 4.65459 171.07 2.54188 160.966C0.850665 152.887 -0.148452 144.281 0.0284747 135.41C0.0579625 133.818 0.127779 132.216 0.237925 130.606C0.334194 129.209 0.461253 127.808 0.619099 126.403C1.13311 121.79 1.99814 117.224 3.20665 112.743C4.75935 106.998 6.88353 101.424 9.5474 96.1025C12.8309 89.5341 17.0837 83.0242 22.4826 76.6731C25.5291 73.0998 28.7919 69.7166 32.2526 66.5427C96.9648 7.02376 159.744 32.0615 168.706 32.0615C211.941 32.0615 201.49 4.77055 249.37 0.595855C350.623 -8.23487 335.562 85.0368 335.561 85.0407C335.56 85.0446 334.065 90.1716 333.61 92.08C332.987 94.6455 332.505 97.0782 332.163 99.3783C332.137 99.5526 332.111 99.7282 332.086 99.8986C331.99 100.567 331.905 101.222 331.836 101.868C331.316 106.47 331.345 110.552 331.817 114.227C332.698 121.099 335.117 126.531 338.346 131.229C340.501 134.366 343.017 137.172 345.676 139.857C346.421 140.61 347.177 141.355 347.943 142.094C348.93 143.048 349.925 143.999 350.928 144.945C352.26 146.211 353.595 147.48 354.903 148.777C355.184 149.053 355.464 149.332 355.742 149.614C356.221 150.095 356.694 150.582 357.162 151.073C359.114 153.089 360.928 155.232 362.594 157.49C362.96 157.985 363.313 158.49 363.659 159.003C364.064 159.61 364.457 160.227 364.836 160.854C366.081 162.913 367.137 165.081 367.992 167.33C370.578 174.169 371.571 182.604 369.805 193.737Z" fill="#EBF3FA"/>
<path opacity="0.2" d="M187.784 159.57L160.7 175.678L49.1894 158.949L0.0219727 135.413C0.0514605 133.82 0.121277 132.219 0.231423 130.608C0.327692 129.212 0.454749 127.811 0.612595 126.405C1.12661 121.793 1.99164 117.226 3.20015 112.745C4.75284 107.001 6.87703 101.426 9.54089 96.1051C9.54089 96.1051 42.6665 82.3516 49.1894 86.4782C55.7123 90.6047 74.3494 115.769 82.7352 114.526C91.121 113.284 97.3343 102.214 108.517 118.155C119.7 134.095 125.912 139.776 136.162 133.675C146.412 127.573 151.692 118.875 160.389 124.156C169.086 129.436 187.784 159.57 187.784 159.57Z" fill="#80B4FF"/>
<path opacity="0.4" d="M345.671 139.852C321.075 148.111 242.961 173.981 224.545 175.545C202.607 177.408 199.528 159.259 199.528 159.259C199.528 159.259 224.066 123.849 227.173 124.471C230.279 125.092 238.751 139.005 242.015 136.675C245.279 134.345 258.927 86.979 264.145 86.4821C269.037 86.0163 276.198 97.2616 278.228 95.3987C279.357 94.3579 284.446 83.7254 289.696 74.4875C293.885 67.1125 298.178 60.6286 300.632 60.6391C303.087 60.6495 306.458 65.9898 309.999 72.7585C315.983 84.182 322.482 99.6774 326.087 100.52C327.865 100.937 329.948 100.291 332.155 99.3691C332.129 99.5434 332.103 99.7191 332.079 99.8895C331.982 100.558 331.898 101.213 331.829 101.859C331.308 106.46 331.337 110.543 331.809 114.218C332.69 121.089 335.11 126.522 338.339 131.22C340.496 134.36 343.012 137.166 345.671 139.852Z" fill="#80B4FF"/>
<path opacity="0.4" d="M224.543 159.921C224.543 159.921 233.39 143.896 234.794 146.459C236.197 149.022 240.151 150.295 242.015 147.562C243.879 144.829 266.526 120.292 267.083 126.387C267.639 132.482 258.321 147.642 262.048 148.331C265.775 149.021 286.275 128.522 293.497 132.72C300.718 136.918 308.871 129.226 316.558 129.458C324.246 129.691 324.017 147.42 324.017 147.42L261.815 166.497L232.464 167.885L218.486 166.259L224.543 159.921Z" fill="#80B4FF"/>
<path d="M350.921 144.94C350.921 144.94 249.828 166.007 239.28 165.428C239.28 165.428 246.74 158.013 256.062 157.706C265.385 157.399 269.418 148.599 280.29 147.558C291.161 146.518 297.684 148.85 302.188 146.518C306.692 144.185 311.815 132.85 322.379 133.161C331.437 133.429 334.896 133.238 338.344 131.217C341.102 135.233 344.458 138.709 347.941 142.083C348.927 143.042 349.92 143.994 350.921 144.94Z" fill="#80B4FF"/>
<path d="M149.153 156.034L0.23291 130.619C0.233142 130.615 0.233142 130.612 0.23291 130.608C0.329179 129.212 0.456236 127.811 0.614082 126.405C1.1281 121.793 1.99312 117.226 3.20164 112.745C3.20164 112.745 19.0821 109.548 26.7706 112.745C34.4591 115.943 33.7592 121.071 39.8164 121.767C45.8735 122.463 51.3647 121.883 55.9206 125.507C60.4765 129.132 67.3103 131.719 74.2468 131.306C81.1834 130.892 95.9893 129.235 101.789 133.895C107.588 138.554 119.08 148.699 129.019 148.544C138.958 148.39 144.47 151.034 146.103 153.358C147.682 155.61 149.07 156.012 149.153 156.034Z" fill="#AFCDFB"/>
<path d="M370.648 185.448C370.53 188.225 370.249 190.993 369.805 193.737C368.822 199.953 365.652 205.613 360.867 209.7C356.082 213.787 349.995 216.031 343.702 216.03L268.826 215.996L203.216 215.965H201.246H187.196H185.384H171.984H169.692L151.015 215.957H147.722L132.489 215.95H128.347L102.094 215.937H97.5086L76.0731 215.927H72.904L41.6335 215.89C36.6966 215.889 31.8523 214.549 27.6171 212.012C23.382 209.474 19.9145 205.836 17.5845 201.483C12.3144 191.622 5.97886 177.382 2.53139 160.968C1.83409 157.646 1.25518 154.236 0.828473 150.755C0.0965381 144.907 -0.151048 139.008 0.0882423 133.119C0.184511 130.896 0.357969 128.658 0.608615 126.405C15.2701 126.206 53.9989 127.346 100.091 141.995C158.991 160.717 213.32 172.75 252.927 162.964C285.871 154.825 326.785 144.751 350.918 144.939C352.251 146.205 353.585 147.475 354.894 148.772C355.175 149.048 355.455 149.327 355.733 149.609C356.212 150.09 356.685 150.576 357.153 151.068C359.104 153.083 360.919 155.227 362.585 157.484C362.951 157.98 363.303 158.485 363.649 158.997C364.055 159.604 364.448 160.222 364.827 160.849C366.072 162.908 367.128 165.075 367.983 167.325C369.891 172.358 370.933 178.252 370.648 185.448Z" fill="#BFE2A8"/>
<path opacity="0.8" d="M176.076 66.3632C176.076 66.3632 180.629 57.9839 191.509 58.9153C191.509 58.9153 207.306 44.9485 224.152 57.0524C224.152 57.0524 242.059 54.0603 255.322 59.6543C264.169 63.3854 267.084 67.2999 267.084 67.2999L176.076 66.3632Z" fill="#F8FCFF"/>
<path opacity="0.8" d="M115.407 85.8277C115.407 85.8277 119.262 79.9332 128.479 80.5875C128.479 80.5875 141.86 70.7629 156.129 79.2775C156.129 79.2775 171.298 77.1687 182.531 81.0988C190.021 83.7241 192.495 86.4768 192.495 86.4768L115.407 85.8277Z" fill="#F8FCFF"/>
<path opacity="0.8" d="M67.5874 59.0506C67.5874 59.0506 70.3337 53.1561 76.8982 53.8104C76.8982 53.8104 86.4288 43.9871 96.593 52.5017C96.593 52.5017 107.397 50.3916 115.398 54.323C120.732 56.947 122.495 59.6998 122.495 59.6998L67.5874 59.0506Z" fill="#F8FCFF"/>
<path d="M159.7 162.62C159.7 162.62 101.89 156.053 78.4904 147.562C55.0905 139.071 53.3902 141.566 59.0545 146.064C64.7187 150.561 97.3864 161.192 83.8489 162.401C70.3114 163.609 45.9463 160.059 36.7643 169.453C27.5823 178.847 13.1576 187.295 36.7643 189.119C60.371 190.943 129.307 177.992 129.307 177.992L159.7 162.62Z" fill="#DAED8E"/>
<path d="M223.444 152.426C223.444 152.426 231.831 172.615 232.763 173.241C233.694 173.867 237.124 174.649 237.356 175.583C237.589 176.517 242.951 188.86 242.951 188.86L222.452 192.82L206.145 183.27L223.444 152.426Z" fill="#A36F4B"/>
<path d="M343.702 216.03L281.849 216.003H268.826L203.216 215.972H201.246H187.196H185.384H171.984H169.692L151.015 215.964H147.722L132.489 215.956H128.347L102.094 215.943H97.5087L76.0732 215.934H72.9041L41.6336 215.89C37.7043 215.889 33.8214 215.039 30.2505 213.4C46.9792 205.61 97.9237 182.278 138.336 167.954C187.413 150.559 215.369 141.241 223.444 152.424C231.519 163.607 202.013 187.212 218.164 187.834C234.315 188.456 273.142 183.485 287.741 186.28C302.312 189.07 300.794 194.645 304.803 194.976H304.825C308.858 195.287 339.926 193.113 343.653 198.703C347.38 204.293 343.702 216.03 343.702 216.03Z" fill="#D8A987"/>
<path opacity="0.8" d="M310.002 72.7585C310.002 72.7585 304.62 68.5565 303.377 67.2946C302.135 66.0327 300.582 69.0782 299.649 70.383C298.716 71.6879 298.608 67.6289 298.608 66.3866C298.608 65.1442 289.689 74.4927 289.689 74.4927C293.878 67.1177 298.171 60.6338 300.626 60.6442C303.081 60.6546 306.458 65.9898 310.002 72.7585Z" fill="#F8FCFF"/>
<path d="M256.113 100.946C256.113 100.946 262.479 84.091 265.792 84.6075C269.106 85.1239 273.634 92.7708 273.634 92.7708C273.634 92.7708 269.028 88.8277 268.17 90.1468C267.313 91.466 267.161 94.0756 265.686 92.7708C264.21 91.466 263.279 91.2799 262.502 92.7708C261.726 94.2617 256.113 100.946 256.113 100.946Z" fill="#F8FCFF"/>
<path d="M92.5197 197.465C88.4868 202.435 63.6325 203.987 64.4092 207.56C65.0323 210.422 76.5196 212.486 77.2286 215.909H72.9043L41.6338 215.89C36.6968 215.889 31.8526 214.549 27.6174 212.011C23.3822 209.474 19.9148 205.836 17.5847 201.483C15.5592 197.692 13.3749 193.252 11.2583 188.292C11.2583 188.292 21.8557 177.618 47.9446 181.787C74.0335 185.957 77.6527 175.134 89.8775 178.509C102.102 181.883 105.253 179.008 109.757 181.787C114.261 184.566 92.6758 189.234 90.3446 191.408C88.0133 193.581 96.5578 192.495 92.5197 197.465Z" fill="#509B67"/>
<path d="M24.8531 182.899C24.8531 182.899 19.5192 170.136 24.5643 167.356C29.6093 164.576 23.9971 178.315 26.1527 183.412C27.2195 185.936 24.8531 182.899 24.8531 182.899Z" fill="#509B67"/>
<path d="M22.3944 186.031C22.3944 186.031 15.8221 177.965 18.8819 174.827C21.9417 171.689 20.7969 182.893 23.4352 186.113C24.753 187.705 22.3944 186.031 22.3944 186.031Z" fill="#509B67"/>
<path d="M27.2336 185.297C27.2336 185.297 26.6117 172.628 31.8883 171.767C37.1649 170.906 27.9348 181.074 28.2054 186.141C28.3394 188.646 27.2336 185.297 27.2336 185.297Z" fill="#509B67"/>
<path d="M45.6574 198.079C45.6574 198.079 44.9315 190.436 47.7064 189.779C50.4813 189.122 47.0963 197.738 47.0963 197.738L45.6574 198.079Z" fill="#82B378"/>
<path d="M47.7285 198.271C47.7285 198.271 50.7012 192.26 53.3681 193.097C56.035 193.935 49.1114 198.706 49.1114 198.706L47.7285 198.271Z" fill="#82B378"/>
<path d="M41.9939 198.5C41.9939 198.5 44.9964 196.844 47.5879 197.258C50.1793 197.671 50.5904 198.086 51.73 198.5C52.8697 198.914 54.2669 199.743 53.645 200.106C53.0232 200.468 47.8468 199.795 46.6044 200.106C45.362 200.416 38.8573 199.636 41.9939 198.5Z" fill="#82B378"/>
<path d="M100.839 208.865C100.839 208.865 104.323 192.638 109.176 196.443C114.028 200.249 103.682 203.99 100.839 208.865Z" fill="#82B378"/>
<path d="M99.4131 209.753C99.4131 209.753 97.8207 197.963 101.042 197.387C104.263 196.81 99.4508 206.185 99.4131 209.753Z" fill="#82B378"/>
<path d="M96.1313 208.824C96.1313 208.824 98.914 207.474 100.945 207.599C102.975 207.724 108.42 208.369 107.922 209.446C107.423 210.523 101.969 209.592 100.587 209.768C99.2054 209.943 94.6378 209.843 96.1313 208.824Z" fill="#82B378"/>
<path d="M284.114 197.374C284.114 197.374 284.012 191.78 286.599 190.799C289.187 189.818 284.373 195.924 284.114 197.374Z" fill="#509B67"/>
<path d="M286.193 196.577C286.193 196.577 288.17 189.504 291.797 189.241C295.424 188.979 287.065 194.851 286.193 196.577Z" fill="#509B67"/>
<path d="M43.9208 172.388C44.9616 172.809 48.6822 172.468 48.8032 172.172C48.9242 171.875 46.4902 169.039 45.4481 168.616C45.2004 168.516 44.9354 168.466 44.6681 168.468C44.4009 168.47 44.1367 168.525 43.8906 168.629C43.6445 168.733 43.4214 168.885 43.234 169.075C43.0465 169.266 42.8984 169.491 42.7981 169.739C42.6978 169.987 42.6473 170.252 42.6495 170.519C42.6516 170.786 42.7064 171.051 42.8106 171.297C42.9149 171.543 43.0666 171.766 43.2571 171.953C43.4476 172.141 43.6731 172.289 43.9208 172.389V172.388Z" fill="#509B67"/>
<path d="M53.3069 174.164C52.7215 175.124 52.4574 178.847 52.7319 179.017C53.0064 179.188 56.1963 177.24 56.7817 176.285C56.9207 176.057 57.0135 175.804 57.0547 175.54C57.0958 175.276 57.0846 175.006 57.0216 174.747C56.9586 174.487 56.8451 174.242 56.6875 174.027C56.5299 173.811 56.3314 173.628 56.1032 173.489C55.8751 173.35 55.6218 173.257 55.3578 173.216C55.0938 173.175 54.8242 173.186 54.5646 173.249C54.3049 173.312 54.0602 173.426 53.8444 173.583C53.6286 173.741 53.446 173.939 53.3069 174.168V174.164Z" fill="#509B67"/>
<path d="M48.2921 181.458C49.3627 181.8 53.047 181.176 53.1446 180.87C53.2421 180.564 50.5999 177.923 49.5293 177.581C49.2747 177.5 49.0067 177.47 48.7404 177.492C48.4741 177.514 48.2149 177.589 47.9774 177.712C47.74 177.834 47.529 178.002 47.3566 178.206C47.1841 178.41 47.0535 178.646 46.9723 178.901C46.891 179.156 46.8608 179.424 46.8831 179.69C46.9055 179.956 46.9801 180.215 47.1026 180.453C47.2252 180.69 47.3933 180.901 47.5974 181.074C47.8015 181.246 48.0375 181.377 48.2921 181.458Z" fill="#509B67"/>
<path d="M53.7114 185.065C53.7114 184.981 53.2951 176.544 48.6768 172.186L48.7743 172.082C53.4369 176.478 53.848 184.97 53.848 185.056L53.7114 185.065Z" fill="#509B67"/>
<path d="M83.2335 165.446C82.2227 166.117 78.2106 166.558 78.0194 166.271C77.8281 165.983 79.7912 162.457 80.8034 161.785C81.2888 161.474 81.8773 161.366 82.4416 161.485C83.006 161.603 83.5011 161.939 83.8201 162.42C84.139 162.9 84.2563 163.487 84.1466 164.053C84.0368 164.619 83.7089 165.12 83.2335 165.446V165.446Z" fill="#509B67"/>
<path d="M73.6833 169.351C74.5081 170.24 75.5917 174.129 75.3381 174.364C75.0844 174.599 71.287 173.231 70.4622 172.341C70.2657 172.13 70.1128 171.881 70.0122 171.611C69.9117 171.34 69.8654 171.052 69.876 170.764C69.8866 170.476 69.954 170.192 70.0742 169.93C70.1944 169.667 70.3651 169.431 70.5766 169.234C70.7881 169.038 71.0363 168.885 71.3069 168.784C71.5774 168.684 71.8652 168.638 72.1537 168.648C72.4421 168.659 72.7257 168.726 72.9882 168.846C73.2506 168.967 73.4868 169.137 73.6833 169.349V169.351Z" fill="#509B67"/>
<path d="M80.5644 175.989C79.5041 176.581 75.4712 176.716 75.3021 176.413C75.133 176.11 77.3589 172.746 78.4243 172.152C78.9331 171.868 79.534 171.797 80.0949 171.956C80.6558 172.114 81.1307 172.489 81.4152 172.998C81.6996 173.507 81.7704 174.108 81.6118 174.669C81.4532 175.229 81.0783 175.704 80.5696 175.989H80.5644Z" fill="#509B67"/>
<path d="M75.6061 180.975C75.5918 180.884 74.2076 171.869 78.1559 166.263L78.0258 166.173C74.0411 171.831 75.4357 180.909 75.45 181.004L75.6061 180.975Z" fill="#509B67"/>
<path d="M63.2553 185.787L62.9587 185.741C61.7879 170.639 57.1813 159.804 57.1162 159.657L57.3855 159.54C57.4506 159.689 62.0949 170.596 63.2553 185.787Z" fill="#509B67"/>
<path d="M53.9874 158.136C54.5559 158.787 57.2189 159.817 57.4023 159.654C57.5857 159.492 56.8884 156.722 56.3199 156.078C56.1913 155.904 56.0279 155.759 55.8401 155.652C55.6524 155.544 55.4444 155.477 55.2293 155.454C55.0142 155.431 54.7967 155.454 54.5906 155.519C54.3845 155.585 54.1944 155.693 54.0322 155.836C53.87 155.979 53.7393 156.154 53.6484 156.351C53.5575 156.547 53.5084 156.76 53.5042 156.976C53.5 157.192 53.5408 157.407 53.6239 157.607C53.7071 157.807 53.8309 157.987 53.9874 158.136V158.136Z" fill="white"/>
<path d="M58.0682 155.891C57.5544 156.58 57.0874 159.403 57.2877 159.545C57.488 159.687 60.0522 158.439 60.566 157.75C60.7733 157.417 60.8481 157.019 60.7755 156.634C60.7029 156.249 60.4883 155.906 60.1742 155.672C59.86 155.438 59.4694 155.33 59.0798 155.371C58.6901 155.411 58.33 155.597 58.0708 155.891H58.0682Z" fill="white"/>
<path d="M61.131 158.888C60.3023 158.662 57.5079 159.259 57.4429 159.496C57.3778 159.732 59.484 161.664 60.3127 161.891C60.5155 161.964 60.7313 161.994 60.9464 161.98C61.1616 161.966 61.3715 161.907 61.5628 161.808C61.7542 161.709 61.9229 161.571 62.0583 161.403C62.1937 161.235 62.2929 161.041 62.3496 160.833C62.4063 160.625 62.4192 160.407 62.3877 160.194C62.3562 159.981 62.2808 159.776 62.1663 159.594C62.0518 159.411 61.9007 159.254 61.7225 159.132C61.5443 159.011 61.3429 158.928 61.131 158.888V158.888Z" fill="white"/>
<path d="M59.2434 162.626C59.1601 161.77 57.612 159.373 57.3674 159.393C57.1228 159.412 56.0665 162.069 56.1458 162.925C56.2151 163.311 56.427 163.657 56.7396 163.893C57.0521 164.13 57.4422 164.241 57.8325 164.203C58.2228 164.165 58.5846 163.982 58.846 163.69C59.1074 163.398 59.2493 163.018 59.2434 162.626V162.626Z" fill="white"/>
<path d="M55.0049 162.442C55.7659 162.042 57.4051 159.701 57.2906 159.484C57.1761 159.267 54.3193 159.287 53.5583 159.687C53.2268 159.897 52.9865 160.223 52.8851 160.602C52.7837 160.981 52.8286 161.384 53.011 161.732C53.1933 162.079 53.4996 162.345 53.8691 162.477C54.2386 162.608 54.644 162.596 55.0049 162.442V162.442Z" fill="white"/>
<path d="M56.7803 159.403C56.7962 159.303 56.8415 159.21 56.9104 159.136C56.9793 159.061 57.0687 159.009 57.1673 158.985C57.2659 158.962 57.3693 158.968 57.4643 159.003C57.5594 159.038 57.6419 159.101 57.7015 159.183C57.761 159.265 57.7948 159.363 57.7987 159.464C57.8026 159.565 57.7763 159.666 57.7232 159.752C57.6702 159.838 57.5927 159.907 57.5005 159.949C57.4084 159.992 57.3058 160.006 57.2057 159.99C57.0715 159.968 56.9513 159.895 56.8715 159.785C56.7918 159.675 56.7589 159.537 56.7803 159.403V159.403Z" fill="#F99746"/>
<path d="M63.1709 170.348C62.3253 171.389 61.412 175.751 61.7099 175.991C62.0079 176.232 66.0902 174.45 66.9358 173.41C67.3419 172.911 67.533 172.271 67.4672 171.631C67.4013 170.991 67.0838 170.403 66.5845 169.997C66.0853 169.591 65.4452 169.4 64.805 169.465C64.1648 169.531 63.577 169.849 63.1709 170.348V170.348Z" fill="#509B67"/>
<path d="M90.3823 186.781L90.6789 186.733C91.8498 171.633 96.4577 160.797 96.5227 160.65L96.2521 160.534C96.1884 160.682 91.5428 171.59 90.3823 186.781Z" fill="#509B67"/>
<path d="M99.6502 159.13C99.0817 159.781 96.4187 160.811 96.2353 160.648C96.0518 160.486 96.7556 157.715 97.3176 157.071C97.4467 156.898 97.6102 156.753 97.7979 156.647C97.9855 156.54 98.1933 156.473 98.408 156.451C98.6227 156.429 98.8397 156.451 99.0453 156.517C99.2509 156.583 99.4406 156.691 99.6024 156.833C99.7643 156.976 99.8947 157.151 99.9855 157.347C100.076 157.543 100.126 157.755 100.13 157.971C100.134 158.187 100.094 158.402 100.012 158.601C99.929 158.8 99.806 158.981 99.6502 159.13V159.13Z" fill="white"/>
<path d="M95.5704 156.885C96.083 157.573 96.55 160.397 96.351 160.539C96.1519 160.681 93.5852 159.433 93.0726 158.744C92.9298 158.582 92.8221 158.392 92.7563 158.186C92.6906 157.981 92.6682 157.764 92.6905 157.549C92.7129 157.334 92.7795 157.127 92.8862 156.939C92.993 156.751 93.1374 156.588 93.3105 156.459C93.4837 156.33 93.6816 156.238 93.892 156.19C94.1023 156.141 94.3204 156.137 94.5325 156.177C94.7447 156.217 94.9462 156.3 95.1244 156.422C95.3026 156.544 95.4536 156.701 95.5678 156.885H95.5704Z" fill="white"/>
<path d="M92.5066 159.882C93.3353 159.656 96.1297 160.253 96.1948 160.49C96.2598 160.726 94.1536 162.658 93.3249 162.883C92.9403 162.953 92.5434 162.877 92.2126 162.668C91.8818 162.46 91.6412 162.135 91.5384 161.758C91.4355 161.381 91.478 160.979 91.6572 160.632C91.8365 160.284 92.1396 160.017 92.5066 159.882V159.882Z" fill="white"/>
<path d="M94.3942 163.618C94.4774 162.764 96.0255 160.366 96.2701 160.385C96.5147 160.405 97.5711 163.063 97.4917 163.917C97.4884 164.133 97.4406 164.346 97.351 164.542C97.2615 164.738 97.1323 164.914 96.9715 165.058C96.8107 165.201 96.6219 165.31 96.417 165.377C96.212 165.445 95.9953 165.469 95.7806 165.448C95.566 165.427 95.3579 165.362 95.1696 165.257C94.9813 165.152 94.8168 165.009 94.6865 164.837C94.5563 164.665 94.463 164.468 94.4127 164.258C94.3624 164.048 94.3561 163.831 94.3942 163.618V163.618Z" fill="white"/>
<path d="M98.6326 163.435C97.8729 163.035 96.2337 160.695 96.3469 160.478C96.4601 160.261 99.3182 160.28 100.079 160.679C100.278 160.764 100.456 160.889 100.604 161.046C100.752 161.203 100.866 161.389 100.938 161.592C101.01 161.795 101.04 162.011 101.025 162.226C101.01 162.441 100.95 162.65 100.85 162.841C100.749 163.032 100.611 163.2 100.442 163.335C100.274 163.47 100.079 163.568 99.8712 163.624C99.6629 163.679 99.4453 163.691 99.2321 163.659C99.0189 163.626 98.8148 163.55 98.6326 163.435Z" fill="white"/>
<path d="M96.8493 160.397C96.8334 160.297 96.7881 160.204 96.7192 160.129C96.6503 160.055 96.5609 160.003 96.4623 159.979C96.3637 159.956 96.2604 159.962 96.1653 159.997C96.0702 160.032 95.9877 160.095 95.9282 160.177C95.8686 160.259 95.8348 160.357 95.8309 160.458C95.8271 160.559 95.8533 160.66 95.9064 160.746C95.9595 160.832 96.0369 160.901 96.1291 160.943C96.2212 160.986 96.3238 161 96.4239 160.984C96.5581 160.962 96.6783 160.889 96.7581 160.779C96.8378 160.669 96.8706 160.531 96.8493 160.397V160.397Z" fill="#F99746"/>
<path d="M90.4667 171.342C91.3123 172.383 92.2256 176.743 91.929 176.985C91.6324 177.227 87.5474 175.444 86.7018 174.404C86.2957 173.905 86.1046 173.265 86.1705 172.625C86.2363 171.985 86.5538 171.397 87.0531 170.991C87.5523 170.585 88.1925 170.393 88.8327 170.459C89.4728 170.525 90.0606 170.843 90.4667 171.342V171.342Z" fill="#509B67"/>
<path d="M260.164 182.16C261.528 182.761 266.477 182.46 266.648 182.071C266.82 181.682 263.708 177.823 262.344 177.221C261.688 176.932 260.944 176.915 260.277 177.174C259.609 177.434 259.071 177.947 258.782 178.603C258.493 179.259 258.477 180.002 258.736 180.67C258.995 181.338 259.509 181.875 260.164 182.164V182.16Z" fill="#509B67"/>
<path d="M272.539 184.895C271.724 186.144 271.224 191.076 271.58 191.307C271.936 191.539 276.246 189.096 277.061 187.844C277.447 187.245 277.58 186.517 277.431 185.819C277.282 185.122 276.863 184.512 276.266 184.122C275.668 183.733 274.941 183.595 274.243 183.74C273.545 183.885 272.932 184.3 272.539 184.895V184.895Z" fill="#509B67"/>
<path d="M265.593 194.363C267 194.86 271.909 194.182 272.051 193.782C272.193 193.381 268.799 189.77 267.391 189.274C267.057 189.156 266.703 189.105 266.349 189.124C265.995 189.142 265.648 189.231 265.329 189.384C265.009 189.536 264.722 189.751 264.485 190.014C264.248 190.278 264.066 190.585 263.948 190.92C263.83 191.254 263.778 191.608 263.797 191.962C263.816 192.316 263.904 192.662 264.057 192.982C264.21 193.302 264.424 193.589 264.688 193.825C264.951 194.062 265.259 194.245 265.593 194.363V194.363Z" fill="#509B67"/>
<path d="M272.633 199.368C272.633 199.255 272.428 188.05 266.48 182.09L266.611 181.96C272.613 187.978 272.817 199.256 272.819 199.369L272.633 199.368Z" fill="#509B67"/>
<path d="M281.804 199.7L281.544 199.659C280.522 186.443 276.486 176.959 276.43 176.831L276.665 176.729C276.724 176.862 280.789 186.405 281.804 199.7Z" fill="#509B67"/>
<path d="M273.693 175.501C274.191 176.064 276.521 176.971 276.685 176.829C276.849 176.687 276.235 174.262 275.738 173.699C275.496 173.436 275.162 173.279 274.806 173.26C274.45 173.241 274.1 173.363 273.833 173.599C273.566 173.835 273.401 174.166 273.376 174.522C273.35 174.877 273.465 175.229 273.695 175.501H273.693Z" fill="white"/>
<path d="M277.264 173.535C276.815 174.139 276.407 176.605 276.58 176.734C276.753 176.863 278.999 175.766 279.442 175.163C279.551 175.02 279.632 174.856 279.678 174.682C279.724 174.507 279.734 174.325 279.71 174.147C279.685 173.968 279.625 173.796 279.533 173.641C279.441 173.485 279.319 173.35 279.174 173.242C279.03 173.134 278.865 173.056 278.69 173.013C278.515 172.969 278.333 172.961 278.155 172.988C277.976 173.015 277.805 173.078 277.651 173.172C277.497 173.266 277.363 173.389 277.257 173.535H277.264Z" fill="white"/>
<path d="M279.945 176.158C279.219 175.961 276.773 176.483 276.718 176.69C276.662 176.897 278.504 178.588 279.23 178.786C279.404 178.837 279.586 178.853 279.766 178.833C279.946 178.813 280.121 178.757 280.279 178.669C280.437 178.58 280.576 178.461 280.688 178.319C280.8 178.176 280.882 178.012 280.929 177.837C280.977 177.662 280.989 177.48 280.965 177.3C280.941 177.12 280.882 176.947 280.79 176.791C280.699 176.634 280.577 176.498 280.431 176.389C280.286 176.28 280.121 176.202 279.945 176.158V176.158Z" fill="white"/>
<path d="M278.293 179.43C278.22 178.68 276.862 176.579 276.651 176.6C276.44 176.621 275.51 178.942 275.582 179.691C275.623 180.045 275.801 180.369 276.078 180.593C276.356 180.817 276.71 180.924 277.065 180.89C277.42 180.856 277.747 180.684 277.977 180.411C278.206 180.138 278.32 179.787 278.293 179.431V179.43Z" fill="white"/>
<path d="M274.584 179.268C275.25 178.918 276.684 176.871 276.584 176.681C276.484 176.491 273.982 176.508 273.318 176.858C272.999 177.026 272.759 177.314 272.651 177.658C272.544 178.003 272.578 178.376 272.746 178.696C272.914 179.016 273.202 179.256 273.546 179.363C273.891 179.47 274.264 179.436 274.584 179.268V179.268Z" fill="white"/>
<path d="M276.141 176.609C276.156 176.522 276.197 176.442 276.258 176.377C276.319 176.313 276.397 176.268 276.484 176.249C276.57 176.229 276.66 176.235 276.743 176.267C276.825 176.298 276.897 176.353 276.948 176.425C277 176.497 277.029 176.583 277.032 176.671C277.035 176.76 277.012 176.847 276.965 176.922C276.919 176.998 276.851 177.057 276.771 177.094C276.69 177.131 276.601 177.144 276.513 177.13C276.454 177.121 276.398 177.1 276.347 177.069C276.296 177.037 276.252 176.996 276.218 176.948C276.183 176.899 276.158 176.844 276.145 176.786C276.132 176.728 276.131 176.668 276.141 176.609Z" fill="#F99746"/>
<path d="M281.73 186.188C280.99 187.099 280.191 190.916 280.451 191.132C280.711 191.348 284.285 189.783 285.025 188.873C285.381 188.436 285.548 187.876 285.49 187.316C285.432 186.755 285.155 186.241 284.718 185.886C284.281 185.53 283.72 185.363 283.16 185.421C282.6 185.478 282.085 185.756 281.73 186.193V186.188Z" fill="#509B67"/>
<path d="M343.703 216.03L281.85 216.003C282.162 213.055 287.761 211.565 287.242 208.657C286.576 204.929 259.021 203.531 270.079 198.769C280.94 194.099 303.979 194.941 304.803 194.972H304.825C308.858 195.283 339.926 193.109 343.653 198.699C347.38 204.289 343.703 216.03 343.703 216.03Z" fill="#509B67"/>
<path d="M160.334 182.162C160.334 182.162 160.714 188.091 161.862 188.173C162.015 188.185 167.681 188.173 167.681 188.173L174.914 188.116C174.914 188.116 174.863 186.373 172.748 186.009C170.633 185.644 167.09 184.168 165.804 181.376C164.448 178.437 160.334 182.162 160.334 182.162Z" fill="#AF5919"/>
<path d="M197.142 177.136C197.142 177.136 198.247 182.974 199.395 182.915C199.549 182.907 205.17 182.201 205.17 182.201L212.342 181.258C212.342 181.258 212.082 179.534 209.934 179.436C207.786 179.339 204.094 178.302 202.475 175.688C200.772 172.935 197.142 177.136 197.142 177.136Z" fill="#AF5919"/>
<path d="M184.316 118.378C184.316 118.378 182.451 130.477 175.44 151.975C168.429 173.473 167.49 182.772 167.49 182.772L159.918 182.575C159.918 182.575 159.803 159.103 163.032 148.295C166.261 137.486 163.648 109.356 163.648 109.356L184.316 118.378Z" fill="#163560"/>
<path d="M186.37 107.392C186.37 107.392 196.677 128.207 199.299 144.684C201.92 161.162 203.982 176.239 203.982 176.239C203.982 176.239 201.449 177.17 196.697 177.581C196.697 177.581 188.665 153.657 187.813 147.699C186.961 141.74 163.025 117.92 164.893 112.041C166.761 106.163 186.37 107.392 186.37 107.392Z" fill="#1C468A"/>
<path d="M171.436 67.24C171.436 67.24 160.791 77.4588 160.281 81.666C159.771 85.8732 165.446 92.4403 165.446 92.4403L171.436 67.24Z" fill="#ED7D2B"/>
<path d="M173.263 67.331L177.296 69.9615L183.113 68.8648C183.031 68.3952 182.642 66.449 182.289 64.6875C182.267 64.5835 182.246 64.4794 182.225 64.3779C181.923 62.8779 181.662 61.59 181.662 61.59L176.223 59.2041L174.195 58.3143C174.195 58.3468 174.356 59.9795 174.377 60.2175C174.763 64.4508 173.263 67.331 173.263 67.331Z" fill="#FFB27D"/>
<path d="M181.613 65.9807C181.501 65.9339 174.603 63.9148 173.854 64.1594C173.104 64.404 172.666 65.8584 172.666 65.8584L183.946 68.3822C183.946 68.3822 183.055 66.5843 181.613 65.9807Z" fill="#ED7D2B"/>
<path d="M163.152 112.27C164.332 117.604 183.779 118.188 188.781 113.34C189.349 112.787 189.373 110.218 189.15 106.762C188.714 100.004 187.342 89.8398 187.278 84.6465C187.247 82.1383 186.896 79.5729 186.433 77.2442C185.831 74.2329 185 71.2721 183.947 68.3874C183.947 68.3874 174.442 65.3381 172.666 65.8636C164.107 68.3965 161.972 106.943 163.152 112.27Z" fill="#F99746"/>
<path d="M189.15 106.762C188.714 100.004 188.479 88.8446 188.415 83.6499C188.384 81.1417 186.896 79.5715 186.433 77.2428L180.716 76.2463C180.716 76.2463 175.179 99.0751 189.15 106.762Z" fill="#ED7D2B"/>
<path d="M178.893 98.7668C178.893 98.7668 185.366 93.1103 187.787 89.5302L189.616 90.766C189.616 90.766 184.513 99.308 179.634 101.564C174.756 103.82 178.893 98.7668 178.893 98.7668Z" fill="#163560"/>
<path d="M174.783 60.2982C175.98 62.3173 180.43 64.0553 182.287 64.6941C182.265 64.59 182.244 64.4859 182.223 64.3844C181.921 62.8845 181.66 61.5965 181.66 61.5965L176.22 59.2106C175.02 59.1911 174.289 59.4604 174.783 60.2982Z" fill="#FCA56B"/>
<path d="M183.506 61.0059C183.506 61.0059 175.25 64.9946 172.846 59.8143C170.442 54.634 167.755 51.6613 172.924 48.8956C178.092 46.1298 180.042 47.6285 181.267 49.1558C182.491 50.683 185.591 59.8338 183.506 61.0059Z" fill="#FFB27D"/>
<path d="M180.849 48.69C180.849 48.69 181.239 55.0763 179.89 54.9969C178.541 54.9176 177.332 54.8903 177.809 56.7623C178.285 58.6343 180.411 60.5584 176.449 61.4925C172.488 62.4266 165.164 52.9245 165.975 50.7988C168.316 44.6636 184.424 41.0991 180.849 48.69Z" fill="#163560"/>
<path d="M167.555 89.5822C167.555 89.5822 166.567 89.7018 166.478 90.6307C166.388 91.5596 165.763 102.867 166.329 103.167C166.895 103.466 169.245 103.345 169.381 103.167C169.518 102.988 170.032 90.5787 169.684 89.8306C169.684 89.8293 168.538 89.3857 167.555 89.5822Z" fill="#163560"/>
<path d="M189.206 102.482C189.206 102.482 190.57 103.494 190.856 104.591C191.32 106.368 191.024 108.031 189.281 108.698C188.638 108.945 188.549 107.418 188.073 106.762C187.597 106.107 185.897 105.742 186.286 104.745L187.436 101.793L189.206 102.482Z" fill="#FFB27D"/>
<path d="M186.937 103.072C186.937 103.072 185.859 104.257 185.748 105.023C185.638 105.789 185.592 106.965 185.568 107.469C185.543 107.972 185.797 108.388 186.262 107.569C186.728 106.749 187.129 105.658 187.445 105.659C187.761 105.66 186.937 103.072 186.937 103.072Z" fill="#FFB27D"/>
<path d="M179.467 67.0383C179.467 67.0383 186.232 68.2352 191.459 75.8964C196.686 83.5576 198.614 88.4569 197.663 91.224C196.712 93.991 191.952 102.571 190.992 103.732C190.17 104.725 187.787 104.655 186.228 103.984C186.228 103.984 189.249 91.2175 188.034 89.8385C187.514 89.2492 180.815 83.594 179.755 86.3338C178 90.8701 179.467 67.0383 179.467 67.0383Z" fill="#F99746"/>
<path d="M185.25 69.6454C185.25 69.6454 184.14 67.6862 181.511 67.2946C178.882 66.9031 177.293 69.9616 177.293 69.9616L179.259 70.7083C179.259 70.7083 180.524 68.3861 181.667 68.3861C182.971 68.377 184.238 68.8223 185.25 69.6454V69.6454Z" fill="#163560"/>
<path d="M180.99 79.0382C180.99 79.0382 178.258 79.0017 174.745 78.9198C168.576 78.778 160.024 78.5009 159.804 78.0534C159.461 77.3495 159.917 69.5218 162.026 68.9559C162.28 68.8955 162.538 68.855 162.799 68.8349C166.205 68.5084 176.615 69.1263 179.017 69.8991C181.645 70.7473 180.99 79.0382 180.99 79.0382Z" fill="#163560"/>
<path d="M174.744 78.9198C168.575 78.778 160.022 78.5009 159.803 78.0534C159.459 77.3496 159.916 69.5219 162.025 68.9559C162.279 68.8955 162.537 68.855 162.797 68.835C166.83 69.0093 171.292 69.4256 172.761 69.8991C175.207 70.6875 174.813 77.9051 174.744 78.9198Z" fill="#1C468A"/>
<path d="M180.989 79.0382C180.989 79.0382 159.858 76.9385 156.199 78.16C152.539 79.3816 152.539 104.309 153.683 106.027C154.826 107.746 175.585 109.336 178.531 108.425C181.476 107.514 180.989 79.0382 180.989 79.0382Z" fill="#1C468A"/>
<path d="M174.748 78.4878C174.748 78.4878 171.855 78.748 171.589 80.81C171.324 82.872 169.497 107.932 171.153 108.595C172.809 109.259 179.7 108.986 180.101 108.595C180.502 108.205 181.993 80.6955 180.99 79.0381C180.99 79.0381 177.629 78.0533 174.748 78.4878Z" fill="#163560"/>
<path d="M161.645 71.6567C161.645 71.6567 160.971 75.1341 161.84 75.6635C162.709 76.193 164.824 76.3439 165.352 75.7234C165.88 75.1028 165.763 71.7269 165.763 71.7269L161.645 71.6567Z" fill="#163560"/>
<path d="M161.645 71.6567C161.645 71.6567 161.94 73.063 163.588 73.0877C164.046 73.106 164.498 72.9855 164.886 72.7419C165.274 72.4983 165.579 72.1431 165.761 71.723C165.761 71.723 163.523 70.7148 161.645 71.6567Z" fill="#29589B"/>
<path d="M163.291 72.5426C163.292 72.4819 163.311 72.4228 163.345 72.3729C163.38 72.323 163.428 72.2845 163.485 72.2622C163.541 72.2399 163.603 72.2349 163.663 72.2477C163.722 72.2606 163.776 72.2908 163.818 72.3344C163.861 72.3781 163.889 72.4333 163.9 72.493C163.911 72.5528 163.903 72.6144 163.879 72.6701C163.855 72.7258 163.815 72.773 163.764 72.8059C163.713 72.8388 163.653 72.8558 163.592 72.8548C163.552 72.8541 163.512 72.8455 163.475 72.8294C163.438 72.8134 163.405 72.7902 163.377 72.7612C163.349 72.7322 163.327 72.698 163.312 72.6605C163.297 72.6229 163.29 72.5829 163.291 72.5426V72.5426Z" fill="#F99746"/>
<path d="M167.868 72.0795C167.868 72.0795 166.973 75.5061 167.807 76.0915C168.641 76.677 170.741 76.9606 171.305 76.3751C171.87 75.7897 171.971 72.4138 171.971 72.4138L167.868 72.0795Z" fill="#163560"/>
<path d="M167.868 72.0795C167.868 72.0795 168.072 73.5027 169.715 73.6406C170.171 73.6887 170.63 73.5978 171.033 73.3797C171.436 73.1616 171.763 72.8267 171.971 72.419C171.971 72.419 169.804 71.2612 167.868 72.0795Z" fill="#29589B"/>
<path d="M169.454 73.0694C169.461 72.9882 169.499 72.9129 169.561 72.8601C169.623 72.8072 169.704 72.7812 169.785 72.7878C169.866 72.7944 169.942 72.8329 169.995 72.895C170.047 72.9571 170.073 73.0376 170.067 73.1189C170.064 73.1591 170.052 73.1983 170.034 73.2342C170.016 73.2702 169.99 73.3021 169.96 73.3283C169.929 73.3544 169.893 73.3743 169.855 73.3867C169.816 73.3991 169.776 73.4038 169.736 73.4005C169.696 73.3973 169.656 73.3861 169.62 73.3677C169.584 73.3494 169.553 73.3241 169.526 73.2933C169.5 73.2626 169.48 73.227 169.468 73.1886C169.456 73.1502 169.451 73.1097 169.454 73.0694V73.0694Z" fill="#F99746"/>
<path d="M155.798 81.0962C155.798 81.0962 154.888 84.3264 155.399 85.1707C155.91 86.015 167.521 86.5861 168.264 85.8992C169.007 85.2123 169.123 81.4969 169.123 81.4969L155.798 81.0962Z" fill="#163560"/>
<path d="M155.798 81.0962C155.798 81.0962 157.385 83.0971 161.392 83.1543C165.399 83.2116 169.12 81.4969 169.12 81.4969C169.12 81.4969 159.744 79.8382 155.798 81.0962Z" fill="#29589B"/>
<path d="M161.116 82.7419C161.306 82.7419 161.46 82.5881 161.46 82.3984C161.46 82.2088 161.306 82.055 161.116 82.055C160.927 82.055 160.773 82.2088 160.773 82.3984C160.773 82.5881 160.927 82.7419 161.116 82.7419Z" fill="#F99746"/>
<path d="M165.944 89.4495C165.944 89.4495 156.357 89.041 155.797 89.4495C155.238 89.858 155.026 103.068 155.455 103.712C155.884 104.356 165.576 104.655 165.576 104.655L165.944 89.4495Z" fill="#29589B"/>
<path d="M370.648 185.448C364.773 185.162 355.931 184.708 348.311 184.212C335.577 183.383 341.168 179.449 347.069 173.857C352.97 168.264 328.743 171.373 310.728 172.621C292.712 173.868 265.688 173.237 275.314 165.441C284.939 157.644 354.898 148.772 354.898 148.772C355.179 149.048 355.459 149.327 355.737 149.608C356.216 150.09 356.689 150.576 357.157 151.068C359.108 153.083 360.923 155.227 362.589 157.484C362.955 157.98 363.307 158.485 363.653 158.997C364.059 159.604 364.452 160.221 364.831 160.849C366.076 162.908 367.132 165.075 367.987 167.325C369.891 172.358 370.933 178.252 370.648 185.448Z" fill="#DAED8E"/>
<path d="M33.5196 142.797C27.6017 142.797 18.0385 143.108 20.9552 144.971C23.8719 146.834 26.3593 149.631 16.4189 149.94C6.59291 150.249 0.959871 150.744 0.83238 150.755C0.100444 144.907 -0.147141 139.008 0.0921486 133.119C0.0921486 133.119 9.29625 130.497 14.8877 133.119C20.4791 135.742 24.495 133.64 28.8441 136.429C33.1931 139.218 42.3555 139.535 44.2198 141.089C46.084 142.642 39.4376 142.797 33.5196 142.797Z" fill="#82B378"/>
<path d="M262.169 206.669L262.605 199.261C262.605 199.261 258.878 196.16 258.344 195.946C257.811 195.733 249.766 194.502 249.766 194.502L250.113 201.46L252.633 206.515L262.169 206.669Z" fill="#EDC5A2"/>
<path d="M243.843 206.424C243.843 206.424 243.322 201.03 243.599 200.44C243.876 199.849 248.927 194.325 249.766 194.501C250.605 194.677 255.23 196.398 256.038 197.051C256.845 197.704 258.728 202.809 258.697 203.34L258.504 206.608L243.843 206.424Z" fill="#F9DDBF"/>
<path d="M249.709 208.403L249.766 205.222C249.771 204.977 249.717 204.734 249.61 204.513C249.502 204.292 249.344 204.1 249.148 203.952C248.288 203.302 246.826 202.22 246.546 202.122C246.297 202.033 243.874 201.741 242.095 201.534C241.865 201.508 241.632 201.534 241.413 201.609C241.194 201.684 240.994 201.807 240.829 201.969C240.663 202.131 240.536 202.328 240.456 202.545C240.376 202.762 240.345 202.995 240.366 203.225L240.626 206.104C240.645 206.318 240.708 206.525 240.812 206.713L242.204 209.242C242.342 209.491 242.545 209.698 242.792 209.84C243.039 209.982 243.32 210.054 243.605 210.047L248.187 209.934C248.589 209.924 248.972 209.759 249.255 209.474C249.539 209.189 249.701 208.805 249.709 208.403Z" fill="#EDC5A2"/>
<path d="M237.61 210.223C237.222 210.233 236.843 210.097 236.549 209.843C236.255 209.589 236.067 209.234 236.021 208.848C235.881 207.668 235.729 206.135 235.841 205.87C236.027 205.428 240.891 201.477 241.513 201.577C242.135 201.677 244.272 202.547 244.888 203.008C245.503 203.468 247.039 207.16 247.032 207.552L247.016 208.476C247.008 208.876 246.846 209.257 246.564 209.541C246.283 209.826 245.903 209.991 245.503 210.003L237.61 210.223Z" fill="#F9DDBF"/>
<path d="M121.403 189.248L121.355 186.559C121.35 186.351 121.395 186.146 121.486 185.959C121.576 185.772 121.71 185.61 121.875 185.484C122.602 184.937 123.84 184.019 124.074 183.938C124.284 183.862 126.332 183.615 127.837 183.441C128.032 183.418 128.23 183.439 128.415 183.502C128.601 183.566 128.77 183.67 128.91 183.807C129.05 183.944 129.158 184.111 129.225 184.295C129.293 184.479 129.318 184.676 129.3 184.872L129.078 187.306C129.062 187.488 129.008 187.665 128.921 187.826L127.75 189.963C127.634 190.175 127.462 190.35 127.253 190.47C127.044 190.59 126.806 190.651 126.565 190.645L122.691 190.549C122.349 190.541 122.024 190.402 121.784 190.159C121.543 189.916 121.407 189.589 121.403 189.248V189.248Z" fill="#EDC5A2"/>
<path d="M131.638 190.788C131.967 190.798 132.287 190.683 132.536 190.468C132.785 190.253 132.944 189.952 132.982 189.625C133.1 188.626 133.227 187.33 133.134 187.107C132.976 186.732 128.863 183.392 128.337 183.477C127.812 183.562 126.003 184.298 125.483 184.683C124.963 185.068 123.662 188.195 123.669 188.527L123.684 189.308C123.69 189.646 123.826 189.969 124.064 190.21C124.303 190.45 124.624 190.59 124.963 190.6L131.638 190.788Z" fill="#F9DDBF"/>
<path d="M110.405 191.225L110.379 189.763C110.377 189.65 110.401 189.538 110.45 189.437C110.5 189.335 110.572 189.247 110.663 189.179C111.053 188.881 111.731 188.382 111.858 188.337C111.986 188.293 113.086 188.162 113.906 188.067C114.012 188.055 114.119 188.066 114.22 188.101C114.321 188.136 114.413 188.193 114.489 188.267C114.566 188.342 114.624 188.433 114.661 188.533C114.697 188.634 114.711 188.741 114.701 188.847L114.58 190.172C114.571 190.27 114.542 190.365 114.494 190.451L113.854 191.614C113.79 191.73 113.696 191.826 113.581 191.892C113.466 191.957 113.335 191.989 113.203 191.985L111.096 191.933C110.912 191.927 110.737 191.85 110.609 191.718C110.48 191.586 110.407 191.41 110.405 191.225V191.225Z" fill="#EDC5A2"/>
<path d="M115.973 192.062C116.152 192.067 116.326 192.005 116.461 191.888C116.597 191.771 116.683 191.607 116.704 191.43C116.768 190.887 116.834 190.182 116.786 190.06C116.7 189.857 114.464 188.041 114.184 188.086C113.904 188.132 112.916 188.532 112.632 188.737C112.349 188.941 111.643 190.646 111.646 190.826L111.654 191.251C111.657 191.435 111.732 191.611 111.861 191.742C111.991 191.873 112.166 191.949 112.35 191.954L115.973 192.062Z" fill="#F9DDBF"/>
<path d="M219.627 195.978L219.601 194.517C219.599 194.404 219.623 194.291 219.672 194.19C219.721 194.088 219.794 193.999 219.885 193.931C220.275 193.633 220.953 193.135 221.08 193.09C221.208 193.044 222.309 192.915 223.127 192.82C223.233 192.808 223.341 192.819 223.442 192.854C223.543 192.888 223.635 192.945 223.712 193.02C223.788 193.095 223.847 193.186 223.883 193.286C223.92 193.387 223.934 193.494 223.923 193.601L223.802 194.924C223.793 195.022 223.764 195.118 223.716 195.205L223.076 196.368C223.013 196.484 222.918 196.58 222.803 196.645C222.688 196.711 222.558 196.743 222.426 196.739L220.318 196.687C220.134 196.68 219.959 196.603 219.831 196.471C219.702 196.338 219.629 196.162 219.627 195.978V195.978Z" fill="#EDC5A2"/>
<path d="M225.191 196.815C225.37 196.821 225.544 196.758 225.68 196.641C225.815 196.524 225.902 196.361 225.922 196.183C225.988 195.641 226.053 194.936 226.006 194.813C225.92 194.61 223.684 192.794 223.404 192.84C223.124 192.885 222.135 193.286 221.852 193.49C221.568 193.694 220.863 195.401 220.866 195.581L220.874 196.005C220.877 196.189 220.951 196.365 221.081 196.496C221.21 196.627 221.385 196.702 221.57 196.707L225.191 196.815Z" fill="#F9DDBF"/>
<path d="M81.0208 211.386L80.9948 209.925C80.9926 209.812 81.0172 209.7 81.0665 209.598C81.1158 209.497 81.1883 209.408 81.2784 209.339C81.6686 209.043 82.3464 208.543 82.4739 208.498C82.6014 208.452 83.7033 208.323 84.5216 208.228C84.6278 208.216 84.7354 208.227 84.8366 208.262C84.9378 208.296 85.0299 208.353 85.1062 208.428C85.1825 208.503 85.241 208.594 85.2774 208.695C85.3138 208.795 85.3271 208.903 85.3165 209.009L85.1955 210.333C85.1865 210.432 85.1572 210.527 85.1096 210.613L84.4696 211.776C84.4059 211.892 84.3115 211.988 84.1967 212.053C84.0819 212.119 83.9512 212.151 83.8191 212.147L81.7129 212.095C81.5284 212.089 81.3535 212.011 81.2246 211.879C81.0957 211.747 81.0227 211.57 81.0208 211.386V211.386Z" fill="#EDC5A2"/>
<path d="M86.5863 212.224C86.7651 212.229 86.9392 212.166 87.0745 212.049C87.2098 211.932 87.2964 211.769 87.3175 211.591C87.3812 211.049 87.4476 210.344 87.3994 210.222C87.3136 210.019 85.0773 208.203 84.7911 208.248C84.5049 208.294 83.5226 208.694 83.239 208.899C82.9554 209.103 82.2503 210.81 82.2529 210.989L82.2607 211.413C82.2643 211.597 82.3386 211.773 82.4681 211.904C82.5977 212.035 82.7726 212.111 82.9567 212.117L86.5863 212.224Z" fill="#F9DDBF"/>
<path d="M114.721 186.957L114.703 185.938C114.702 185.86 114.719 185.782 114.753 185.711C114.788 185.64 114.838 185.579 114.901 185.531C115.167 185.32 115.445 185.124 115.734 184.944C115.814 184.917 116.59 184.823 117.165 184.757C117.238 184.748 117.313 184.756 117.383 184.78C117.453 184.804 117.517 184.843 117.57 184.895C117.623 184.947 117.664 185.01 117.69 185.079C117.716 185.149 117.726 185.223 117.719 185.297L117.636 186.219C117.629 186.288 117.608 186.354 117.576 186.415L117.129 187.224C117.086 187.304 117.021 187.371 116.942 187.417C116.862 187.463 116.772 187.486 116.681 187.484L115.213 187.447C115.084 187.445 114.96 187.393 114.868 187.302C114.776 187.21 114.724 187.087 114.721 186.957Z" fill="#EDC5A2"/>
<path d="M118.598 187.54C118.723 187.543 118.844 187.5 118.938 187.418C119.032 187.337 119.092 187.223 119.107 187.099C119.151 186.721 119.2 186.23 119.164 186.145C119.105 186.003 117.547 184.739 117.343 184.77C116.963 184.873 116.6 185.027 116.262 185.228C116.065 185.374 115.572 186.558 115.575 186.684V186.979C115.577 187.107 115.629 187.23 115.719 187.321C115.809 187.412 115.931 187.465 116.059 187.468L118.598 187.54Z" fill="#F9DDBF"/>
</g>
<defs>
<clipPath id="clip0_535_1678">
<rect width="370.695" height="216.032" fill="white"/>
</clipPath>
</defs>
</svg>
