<svg width="8" height="14" viewBox="0 0 8 14" fill="none" xmlns="http://www.w3.org/2000/svg">
<path d="M-0.000487188 6.95666C-0.000904891 6.57216 0.144058 6.20609 0.397354 5.95199L6.08546 0.25111C6.47748 -0.123639 7.06041 -0.0733184 7.39839 0.364447C7.73637 0.802213 7.70577 1.4673 7.32948 1.86242L2.35545 6.84742C2.32782 6.875 2.31198 6.91481 2.31198 6.95666C2.31198 6.9985 2.32782 7.03832 2.35545 7.0659L7.32948 12.0509C7.59131 12.3012 7.7136 12.6934 7.64903 13.0758C7.58446 13.4582 7.34317 13.7707 7.01851 13.8925C6.69386 14.0142 6.33678 13.9261 6.08546 13.6622L0.399394 7.96307C0.145484 7.70854 -0.000166042 7.34197 -0.000487188 6.95666Z" fill="#0A102A"/>
</svg>
