<svg width="52" height="52" viewBox="0 0 52 52" fill="none" xmlns="http://www.w3.org/2000/svg">
<path fill-rule="evenodd" clip-rule="evenodd" d="M35.2993 0.637L47.0296 12.3673C47.4367 12.7732 47.6659 13.3243 47.6666 13.8992V47.6667C47.6666 50.0599 45.7265 52 43.3333 52H8.66659C6.27335 52 4.33325 50.0599 4.33325 47.6667V4.33333C4.33325 1.9401 6.27335 0 8.66659 0H33.7674C34.3423 0.000697104 34.8934 0.229848 35.2993 0.637ZM42.2499 47.6667C42.8482 47.6667 43.3332 47.1816 43.3332 46.5833V15.2447C43.3332 14.9568 43.2186 14.6809 43.0147 14.4777L33.1889 4.65183C32.9857 4.44799 32.7097 4.33339 32.4219 4.33333H9.74992C9.15161 4.33333 8.66659 4.81836 8.66659 5.41667V46.5833C8.66659 47.1816 9.15161 47.6667 9.74992 47.6667H42.2499Z" fill="#0A102A"/>
<path d="M17.4913 22.0523C16.6453 21.2057 15.2732 21.2052 14.4266 22.0512C13.58 22.8972 13.5795 24.2693 14.4255 25.1159L17.9268 28.6173C18.0287 28.7189 18.0859 28.8569 18.0859 29.0008C18.0859 29.1447 18.0287 29.2826 17.9268 29.3843L14.4255 32.8834C13.5789 33.73 13.5789 35.1027 14.4255 35.9493C15.2721 36.7959 16.6447 36.7959 17.4913 35.9493L22.908 30.5326C23.7538 29.6865 23.7538 28.315 22.908 27.4689L17.4913 22.0523Z" fill="#0A102A"/>
<path d="M35.75 24.9167H28.1667C26.97 24.9167 26 25.8868 26 27.0834C26 28.28 26.97 29.2501 28.1667 29.2501H35.75C36.9466 29.2501 37.9167 28.28 37.9167 27.0834C37.9167 25.8868 36.9466 24.9167 35.75 24.9167Z" fill="#0A102A"/>
</svg>
