<svg width="46" height="47" viewBox="0 0 46 47" fill="none" xmlns="http://www.w3.org/2000/svg">
<path fill-rule="evenodd" clip-rule="evenodd" d="M8.58725 44.106C8.58725 43.0821 9.39985 42.2431 10.4231 42.2104L20.3654 42.2201C20.6331 42.2201 20.8502 42.003 20.8502 41.7353V36.5228C20.8496 36.2649 20.648 36.0523 20.3906 36.038C11.4781 35.5473 2.79242 32.2701 2.79242 26.5844V9.5195V9.5001C2.81569 3.33153 13.0798 0 22.7409 0C32.402 0 42.6758 3.33735 42.6739 9.5195V26.5747C42.6739 32.2565 33.9998 35.5338 25.0931 36.0283C24.8359 36.0407 24.6341 36.2536 24.6355 36.5111V41.7256C24.6355 41.9934 24.8525 42.2104 25.1203 42.2104H35.0509C36.0742 42.2431 36.8868 43.0821 36.8868 44.106C36.8868 45.1298 36.0742 45.9688 35.0509 46.0015H10.4231C9.39985 45.9688 8.58725 45.1298 8.58725 44.106ZM22.741 19.041C17.1501 19.2195 11.6095 17.9354 6.66702 15.3158V18.0482C6.66702 20.348 12.9325 23.6893 22.739 23.6893C32.5455 23.6893 38.8033 20.348 38.8033 18.0482V15.3178C33.8644 17.9354 28.3279 19.2188 22.741 19.041ZM22.7409 3.87839C32.5416 3.87839 38.7955 7.2138 38.8052 9.51562V9.53113C38.7858 11.833 32.5339 15.1548 22.7429 15.1548C12.9519 15.1548 6.66891 11.8213 6.66891 9.5195C6.66891 7.21767 12.9267 3.87839 22.7409 3.87839ZM6.67477 23.8445V26.5671L6.66702 26.5749C6.66702 28.8767 12.9345 32.2179 22.741 32.2179C32.5475 32.2179 38.8053 28.8767 38.8053 26.5749V23.8445C33.8656 26.4621 28.3285 27.7455 22.741 27.5677C17.1528 27.7458 11.615 26.4624 6.67477 23.8445Z" fill="white"/>
<path d="M39.8057 44.105C39.8052 44.6079 40.0046 45.0902 40.3599 45.446C40.7153 45.8017 41.1975 46.0016 41.7003 46.0016H43.5949C44.6182 45.9688 45.4308 45.1298 45.4308 44.106C45.4308 43.0822 44.6182 42.2432 43.5949 42.2105H41.7003C41.1977 42.2099 40.7155 42.4094 40.3601 42.7648C40.0046 43.1202 39.8052 43.6024 39.8057 44.105V44.105Z" fill="white"/>
<path d="M9.95897e-07 44.105C-0.000513654 44.6079 0.198867 45.0902 0.554228 45.446C0.909588 45.8017 1.39178 46.0016 1.89459 46.0016H3.78918C4.81248 45.9688 5.62508 45.1298 5.62508 44.106C5.62508 43.0822 4.81248 42.2432 3.78918 42.2105H1.89459C1.39196 42.2099 0.909761 42.4094 0.554345 42.7648C0.198928 43.1202 -0.000514263 43.6024 9.95897e-07 44.105V44.105Z" fill="white"/>
</svg>
