<svg width="17" height="22" viewBox="0 0 17 22" fill="none" xmlns="http://www.w3.org/2000/svg">
<path fill-rule="evenodd" clip-rule="evenodd" d="M5.37404 7.78452C5.80149 8.13163 6.41202 8.05097 6.74634 7.60322L10.5896 2.36227C10.8272 2.04047 11.2647 1.98239 11.5696 2.23218L11.9006 2.50896L10.441 4.49767C10.3726 4.59067 10.3419 4.70874 10.3556 4.82583C10.3693 4.94292 10.4263 5.04942 10.514 5.12183L13.8203 7.85371C14.0033 8.0043 14.2665 7.96968 14.4093 7.77621L16.4684 4.96821C17.2075 3.96143 17.1725 2.53997 16.3847 1.57568C15.5969 0.61139 14.2767 0.373861 13.2338 1.00878C13.193 0.957527 13.1472 0.911124 13.097 0.870386L12.7647 0.593599C11.6083 -0.360772 9.9426 -0.140988 9.04132 1.0849L5.20462 6.33139C4.87569 6.78296 4.95133 7.43177 5.37404 7.78452ZM3.47667 15.2161L5.44097 16.7384C5.70127 16.9403 6.03148 17.031 6.35897 16.9906C6.68643 16.9501 6.98435 16.7818 7.18714 16.5226L12.9122 9.1998C12.98 9.11347 13.0104 9.00387 12.9968 8.89518C12.9833 8.78648 12.9268 8.68762 12.84 8.6204L9.5683 6.08696C9.38706 5.94717 9.12644 5.97932 8.98494 6.15891L3.26242 13.4817C2.84137 14.0198 2.9372 14.7956 3.47667 15.2161ZM0.871844 21.9342C0.662646 22.0425 0.417605 22.0157 0.230975 21.8643C0.0475796 21.7039 -0.0366031 21.4392 0.0149411 21.185L0.955859 16.5241C1.00119 16.2996 1.14585 16.1166 1.33925 16.0392C1.53266 15.9618 1.74797 16.0006 1.90998 16.1421L4.76992 18.64C4.9312 18.7816 5.01691 19.0056 4.99723 19.2341C4.97753 19.4627 4.85518 19.6642 4.6727 19.7685L0.871844 21.9342Z" fill="#0A102A"/>
</svg>
