<svg width="19" height="5" viewBox="0 0 19 5" fill="none" xmlns="http://www.w3.org/2000/svg">
<path d="M2.536 4.312C1.98133 4.312 1.574 4.17333 1.314 3.896C1.07133 3.61867 0.95 3.25467 0.95 2.804V2.466C0.95 2.01533 1.07133 1.65133 1.314 1.374C1.574 1.09667 1.98133 0.958 2.536 0.958C3.09067 0.958 3.48933 1.09667 3.732 1.374C3.992 1.65133 4.122 2.01533 4.122 2.466V2.804C4.122 3.25467 3.992 3.61867 3.732 3.896C3.48933 4.17333 3.09067 4.312 2.536 4.312ZM9.61998 4.312C9.06532 4.312 8.65798 4.17333 8.39798 3.896C8.15532 3.61867 8.03398 3.25467 8.03398 2.804V2.466C8.03398 2.01533 8.15532 1.65133 8.39798 1.374C8.65798 1.09667 9.06532 0.958 9.61998 0.958C10.1747 0.958 10.5733 1.09667 10.816 1.374C11.076 1.65133 11.206 2.01533 11.206 2.466V2.804C11.206 3.25467 11.076 3.61867 10.816 3.896C10.5733 4.17333 10.1747 4.312 9.61998 4.312ZM16.704 4.312C16.1493 4.312 15.742 4.17333 15.482 3.896C15.2393 3.61867 15.118 3.25467 15.118 2.804V2.466C15.118 2.01533 15.2393 1.65133 15.482 1.374C15.742 1.09667 16.1493 0.958 16.704 0.958C17.2586 0.958 17.6573 1.09667 17.9 1.374C18.16 1.65133 18.29 2.01533 18.29 2.466V2.804C18.29 3.25467 18.16 3.61867 17.9 3.896C17.6573 4.17333 17.2586 4.312 16.704 4.312Z" fill="#0A102A"/>
</svg>
