<svg width="17" height="16" viewBox="0 0 17 16" fill="none" xmlns="http://www.w3.org/2000/svg">
<path d="M15.6556 2.23682H13.7631C13.6681 2.23682 13.5911 2.31384 13.5911 2.40886V3.44109C13.5911 3.53611 13.6681 3.61313 13.7631 3.61313H14.847C14.9244 3.61295 14.9987 3.64351 15.0535 3.6981C15.1083 3.75269 15.1393 3.82684 15.1394 3.90422V10.5463C15.1393 10.6237 15.1083 10.6978 15.0535 10.7524C14.9987 10.807 14.9244 10.8376 14.847 10.8374H1.66878C1.5914 10.8376 1.51711 10.807 1.46226 10.7524C1.40741 10.6978 1.3765 10.6237 1.37631 10.5463V3.90422C1.3765 3.82684 1.40741 3.75269 1.46226 3.6981C1.51711 3.64351 1.5914 3.61295 1.66878 3.61313H2.75263C2.84764 3.61313 2.92467 3.53611 2.92467 3.44109V2.40886C2.92467 2.31384 2.84764 2.23682 2.75263 2.23682H0.860196C0.385123 2.23682 0 2.62194 0 3.09701V12.2722C0 12.7473 0.385123 13.1324 0.860196 13.1324H15.6556C15.8837 13.1324 16.1025 13.0418 16.2638 12.8805C16.4251 12.7191 16.5158 12.5003 16.5158 12.2722V3.09701C16.5158 2.86887 16.4251 2.65008 16.2638 2.48876C16.1025 2.32744 15.8837 2.23682 15.6556 2.23682Z" fill="white"/>
<path d="M9.6052 14.0966C9.55086 14.031 9.47018 13.9929 9.38499 13.9927H7.13059C7.0454 13.9929 6.96472 14.031 6.91038 14.0966L5.70611 15.5486C5.64484 15.6362 5.63734 15.7506 5.68664 15.8454C5.73594 15.9403 5.83388 15.9998 5.94077 16H10.5741C10.681 15.9998 10.779 15.9403 10.8283 15.8454C10.8776 15.7506 10.8701 15.6362 10.8088 15.5486L9.6052 14.0966Z" fill="white"/>
<path fill-rule="evenodd" clip-rule="evenodd" d="M4.25913 6.83582C4.07512 6.75178 3.95706 6.5681 3.95703 6.36581V2.23687C3.95706 2.03457 4.07512 1.8509 4.25913 1.76686L8.04399 0.0464643C8.17995 -0.0154881 8.33607 -0.0154881 8.47203 0.0464643L12.2569 1.76686C12.4409 1.8509 12.559 2.03457 12.559 2.23687V6.36581C12.559 6.5681 12.4409 6.75178 12.2569 6.83582L8.47203 8.55621C8.33598 8.61771 8.18004 8.61771 8.04399 8.55621L4.25913 6.83582ZM8.18507 3.35796C8.23007 3.3786 8.28183 3.3786 8.32683 3.35796L10.4491 2.39591C10.5104 2.36771 10.5496 2.30645 10.5496 2.23901C10.5496 2.17158 10.5104 2.11031 10.4491 2.08211L8.32683 1.11869C8.283 1.09929 8.23302 1.09929 8.1892 1.11869L6.06279 2.08074C6.00154 2.10894 5.9623 2.1702 5.9623 2.23764C5.9623 2.30507 6.00154 2.36634 6.06279 2.39454L8.18507 3.35796Z" fill="white"/>
</svg>
