<svg width="24" height="24" viewBox="0 0 24 24" fill="none" xmlns="http://www.w3.org/2000/svg">
<path d="M11.25 7.24219C11.25 6.6899 10.8023 6.24219 10.25 6.24219H6.75C5.09315 6.24219 3.75 7.58533 3.75 9.24219V17.2422C3.75 18.899 5.09315 20.2422 6.75 20.2422H14.75C16.4069 20.2422 17.75 18.899 17.75 17.2422V14.7422C17.75 14.1899 17.3023 13.7422 16.75 13.7422C16.1977 13.7422 15.75 14.1899 15.75 14.7422V17.2422C15.75 17.7945 15.3023 18.2422 14.75 18.2422H6.75C6.19772 18.2422 5.75 17.7945 5.75 17.2422V9.24219C5.75 8.6899 6.19772 8.24219 6.75 8.24219H10.25C10.5152 8.24219 10.7696 8.13683 10.9571 7.94929C11.1446 7.76176 11.25 7.5074 11.25 7.24219Z" fill="#8A90AD"/>
<path d="M9.74997 15.7418C10.1474 15.742 10.5286 15.5845 10.81 15.3038L17.278 8.84581C17.3247 8.79885 17.3882 8.77245 17.4545 8.77245C17.5207 8.77245 17.5842 8.79885 17.631 8.84581L19.4 10.6108C19.4938 10.7049 19.6211 10.7578 19.754 10.7578C19.8195 10.7575 19.8843 10.7446 19.945 10.7198C20.132 10.6425 20.2539 10.4601 20.254 10.2578V4.25781C20.254 3.98167 20.0301 3.75781 19.754 3.75781H13.754C13.5519 3.75786 13.3697 3.87952 13.2923 4.06616C13.2148 4.25279 13.2573 4.4677 13.4 4.61081L15.161 6.37081C15.2074 6.41809 15.2335 6.48157 15.234 6.54781C15.2338 6.61431 15.2072 6.678 15.16 6.72481L8.68997 13.1808C8.26081 13.6097 8.13228 14.2549 8.36432 14.8155C8.59635 15.3761 9.14325 15.7417 9.74997 15.7418Z" fill="#8A90AD"/>
</svg>
