<svg width="15" height="15" viewBox="0 0 15 15" fill="none" xmlns="http://www.w3.org/2000/svg">
<path fill-rule="evenodd" clip-rule="evenodd" d="M0 7.5C0 3.35786 3.35786 0 7.5 0C11.6401 0.00482173 14.9952 3.35986 15 7.5C15 11.6421 11.6421 15 7.5 15C3.35786 15 0 11.6421 0 7.5ZM7.55137 10.9308L11.8295 5.12521C11.9741 4.9462 12.0087 4.7022 11.9194 4.49007C11.8302 4.27794 11.6316 4.13202 11.4025 4.11024C11.1734 4.08845 10.9509 4.19433 10.8232 4.38584L6.93137 9.66771L4.38387 7.62959C4.11429 7.41385 3.72086 7.4575 3.50512 7.72709C3.28939 7.99667 3.33304 8.3901 3.60262 8.60584L6.65762 11.0483C6.79117 11.1527 6.96107 11.1991 7.12914 11.177C7.2972 11.1549 7.44934 11.0662 7.55137 10.9308Z" fill="#2F9898"/>
</svg>
