<svg width="13" height="16" viewBox="0 0 13 16" fill="none" xmlns="http://www.w3.org/2000/svg">
<path fill-rule="evenodd" clip-rule="evenodd" d="M10.8545 5.97522C10.6851 5.94746 10.5613 5.79846 10.5635 5.62493V4.48068C10.5635 2.22369 8.7537 0.394043 6.52123 0.394043C4.28875 0.394043 2.47898 2.22369 2.47898 4.48068V5.60508C2.47912 5.78736 2.35029 5.94365 2.17292 5.97639C1.35014 6.12568 0.750153 6.84767 0.746582 7.69277V14.1146C0.746582 15.0819 1.5222 15.866 2.47898 15.866H10.5635C11.5203 15.866 12.2959 15.0819 12.2959 14.1146V7.69277C12.2916 6.84242 11.6837 6.11807 10.8545 5.97522ZM6.52123 12.6551C5.88338 12.6551 5.3663 12.1323 5.3663 11.4874C5.3663 10.8426 5.88338 10.3198 6.52123 10.3198C7.15908 10.3198 7.67616 10.8426 7.67616 11.4874C7.67616 12.1323 7.15908 12.6551 6.52123 12.6551ZM7.96489 5.94132C8.12435 5.94132 8.25362 5.81063 8.25362 5.64942V4.48181C8.25362 3.51454 7.478 2.73041 6.52123 2.73041C5.56446 2.73041 4.78884 3.51454 4.78884 4.48181V5.64942C4.78884 5.81063 4.91811 5.94132 5.07757 5.94132H7.96489Z" fill="white"/>
</svg>
