<svg width="17" height="16" viewBox="0 0 17 16" fill="none" xmlns="http://www.w3.org/2000/svg">
<path fill-rule="evenodd" clip-rule="evenodd" d="M12.5219 10.6347L15.6184 13.7312C16.1389 14.2518 16.1389 15.0958 15.6184 15.6164C15.0941 16.1279 14.2575 16.1279 13.7332 15.6164L10.6367 12.5206C7.7134 14.475 3.78429 13.8931 1.55288 11.1753C-0.678536 8.45755 -0.484421 4.49033 2.00166 2.00337C4.48774 -0.48359 8.45489 -0.679108 11.1735 1.55134C13.892 3.7818 14.4753 7.7107 12.5219 10.6347ZM11.676 6.84094C11.676 4.17174 9.51217 2.00792 6.84297 2.00792C4.17499 2.01086 2.0129 4.17296 2.00996 6.84094C2.00996 9.51014 4.17377 11.6739 6.84297 11.6739C9.51217 11.6739 11.676 9.51014 11.676 6.84094Z" fill="#0A102A"/>
</svg>
