<svg width="55" height="58" viewBox="0 0 55 58" fill="none" xmlns="http://www.w3.org/2000/svg">
<path fill-rule="evenodd" clip-rule="evenodd" d="M44.5874 16.8707L53.6306 20.6359C54.0807 20.8231 54.3743 21.2625 54.3749 21.75V37.4583C54.3743 37.9458 54.0807 38.3852 53.6306 38.5724L39.1306 44.6141C38.834 44.7398 38.4991 44.7398 38.2026 44.6141L23.7026 38.5724C23.2524 38.3852 22.9589 37.9458 22.9583 37.4583V21.75C22.9589 21.2625 23.2524 20.8231 23.7026 20.6359L35.9503 15.5392C36.1497 15.4551 36.2889 15.2707 36.3152 15.0558C36.6404 12.6686 38.674 10.8855 41.0833 10.875H48.3333C49.0006 10.875 49.5416 10.334 49.5416 9.66667C49.5416 8.99932 49.0006 8.45833 48.3333 8.45833H38.6666C35.3299 8.45833 32.6249 5.75339 32.6249 2.41667C32.6249 1.08198 33.7069 0 35.0416 0C36.3763 0 37.4583 1.08198 37.4583 2.41667C37.4583 3.08401 37.9992 3.625 38.6666 3.625H48.3333C51.67 3.625 54.3749 6.32995 54.3749 9.66667C54.3749 13.0034 51.67 15.7083 48.3333 15.7083H44.8291C44.5388 15.7031 44.2858 15.9051 44.2267 16.1894C44.1676 16.4737 44.3191 16.7598 44.5874 16.8707ZM45.7958 21.1917L38.8986 18.3232C38.7503 18.2603 38.5829 18.2603 38.4346 18.3232L31.5374 21.1917C31.3116 21.2852 31.1643 21.5056 31.1643 21.75C31.1643 21.9944 31.3116 22.2148 31.5374 22.3083L38.4443 25.1768C38.5925 25.2397 38.76 25.2397 38.9083 25.1768L45.7958 22.3083C46.0216 22.2148 46.1689 21.9944 46.1689 21.75C46.1689 21.5056 46.0216 21.2852 45.7958 21.1917Z" fill="#0A102A"/>
<path d="M31.4167 46.5208H13.2917C12.6243 46.5208 12.0833 45.9798 12.0833 45.3124C12.0833 44.6451 12.6243 44.1041 13.2917 44.1041H20.5417C21.209 44.1041 21.75 43.5631 21.75 42.8958C21.75 40.2264 19.586 38.0624 16.9167 38.0624H4.22917C3.89549 38.0624 3.625 37.7919 3.625 37.4583C3.625 36.4572 2.81352 35.6458 1.8125 35.6458C0.811484 35.6458 0 36.4572 0 37.4583V55.5833C0 56.5843 0.811484 57.3958 1.8125 57.3958C2.81352 57.3958 3.625 56.5843 3.625 55.5833C3.625 55.2496 3.89549 54.9791 4.22917 54.9791H37.4583C38.1257 54.9791 38.6667 54.4381 38.6667 53.7708C38.6667 49.7667 35.4207 46.5208 31.4167 46.5208Z" fill="#0A102A"/>
</svg>
