<svg width="16" height="16" viewBox="0 0 16 16" fill="none" xmlns="http://www.w3.org/2000/svg">
<path d="M12.7993 12.2667C11.994 12.2654 11.2322 11.901 10.7259 11.2747C10.2196 10.6485 10.0228 9.82734 10.1902 9.03964C10.4773 7.79235 11.5963 6.9148 12.8761 6.93333H14.5778C14.7741 6.93333 14.9333 6.77415 14.9333 6.57778C14.9333 6.01387 14.9333 4.97493 14.9333 4.97493C14.9333 3.99309 14.1374 3.19716 13.1556 3.19716C9.97262 3.19716 19.4574 3.19004 3.2 3.19004C2.90545 3.19004 2.66667 2.95126 2.66667 2.65671C2.66667 2.36216 2.90545 2.12338 3.2 2.12338H12.6222C12.7201 2.12338 12.7996 2.04422 12.8 1.94631V1.77778C12.8 0.797156 11.6836 0 10.3111 0H2.48889C1.11431 0 0 1.11431 0 2.48889V13.5111C0 14.8857 1.11431 16 2.48889 16H13.1556C14.1374 16 14.9333 15.2041 14.9333 14.2222V12.4444C14.9333 12.3463 14.8537 12.2667 14.7556 12.2667H12.7993Z" fill="white"/>
<path d="M14.9326 8H12.7992C11.9156 8 11.1992 8.71634 11.1992 9.6C11.1992 10.4837 11.9156 11.2 12.7992 11.2H14.9326C15.4504 11.1107 15.827 10.6588 15.8214 10.1333V9.06667C15.827 8.54118 15.4504 8.0893 14.9326 8V8Z" fill="white"/>
</svg>
