<svg width="15" height="16" viewBox="0 0 15 16" fill="none" xmlns="http://www.w3.org/2000/svg">
<path d="M13.8283 14.8617C13.0473 15.6427 11.7809 15.6427 10.9999 14.8617L7.58145 11.4432L4.55699 14.4677C3.77594 15.2487 2.50961 15.2487 1.72856 14.4677L1.45779 14.1969C0.676746 13.4159 0.676745 12.1496 1.45779 11.3685L4.48226 8.34404L1.06383 4.92561C0.282781 4.14456 0.282779 2.87823 1.06383 2.09718L1.59724 1.56377C2.37829 0.782723 3.64462 0.782724 4.42567 1.56377L7.84409 4.9822L10.8686 1.95774C11.6496 1.17669 12.9159 1.17669 13.697 1.95774L13.9678 2.2285C14.7488 3.00955 14.7488 4.27588 13.9678 5.05693L10.9433 8.08139L14.3617 11.4998C15.1428 12.2809 15.1428 13.5472 14.3617 14.3283L13.8283 14.8617Z" fill="#0A102A"/>
</svg>
