<svg width="99" height="97" viewBox="0 0 99 97" fill="none" xmlns="http://www.w3.org/2000/svg">
<path fill-rule="evenodd" clip-rule="evenodd" d="M98.0147 0L0 13.6688V36.0618H2.15041C7.50107 36.0618 10.817 39.2772 10.817 44.6279C10.817 49.9786 7.50107 53.1437 2.15041 53.1437H0V74.227L98.0147 60.5583V53.3054C97.4395 53.4147 96.8259 53.4703 96.1826 53.4703C92.3894 53.4703 89.7769 51.737 89.0735 48.1699H92.0126C92.4899 50.1042 93.9218 51.1592 96.2077 51.1592C96.9115 51.1592 97.515 51.0658 98.0147 50.8933V46.1992C97.238 45.8678 96.2758 45.6671 95.2795 45.4593C92.4867 44.8767 89.4252 44.238 89.4252 40.5082C89.4252 37.9459 91.5856 35.7353 95.4792 35.7353C96.3771 35.7353 97.2321 35.8497 98.0147 36.0885V0ZM98.0147 38.8783C97.3553 38.311 96.4761 38.0463 95.4039 38.0463C93.4445 38.0463 92.3141 38.9256 92.3141 40.2821C92.3141 42.2839 94.3653 42.6925 96.6414 43.1459C97.0951 43.2363 97.5576 43.3285 98.0147 43.4354V38.8783ZM0 50.8578H2.15041C5.79288 50.8578 7.95324 48.5467 7.95324 44.6279C7.95324 40.6589 5.79288 38.3478 2.15041 38.3478H0V50.8578ZM50.3048 38.0463C48.3454 38.0463 47.215 38.9256 47.215 40.2821C47.215 42.2839 49.2662 42.6925 51.5423 43.1459C54.3788 43.711 57.5646 44.3456 57.5646 48.2201C57.5646 51.5863 54.8265 53.4703 51.0835 53.4703C47.2903 53.4703 44.6778 51.737 43.9744 48.1699H46.9135C47.3908 50.1042 48.8227 51.1592 51.1086 51.1592C53.4448 51.1592 54.6757 50.1293 54.6757 48.5969C54.6757 46.397 52.5226 45.9479 50.1804 45.4593C47.3876 44.8767 44.3261 44.238 44.3261 40.5082C44.3261 37.9459 46.4865 35.7353 50.3801 35.7353C53.7463 35.7353 56.5095 37.343 57.1124 41.0859H54.1231C53.6458 38.9758 52.3144 38.0463 50.3048 38.0463ZM32.5244 53.1437H35.4635L28.8819 36.0618H25.5911L19.0096 53.1437H21.8231L23.2801 49.3003H31.0674L32.5244 53.1437ZM26.6713 40.4328L27.1737 38.7748L27.6761 40.4328L30.2133 47.0897H24.1342L26.6713 40.4328ZM67.822 53.1437H79.6035V50.8829H70.6355V45.4318H78.6489V43.196H70.6355V38.3227H79.6035V36.0618H67.822V53.1437Z" fill="#030397"/>
<rect y="94" width="98" height="3" fill="#FF6B00"/>
</svg>
