<svg width="46" height="47" viewBox="0 0 46 47" fill="none" xmlns="http://www.w3.org/2000/svg">
<path fill-rule="evenodd" clip-rule="evenodd" d="M9.15665 44.7576C9.15665 43.7338 9.96924 42.8947 10.9925 42.862L20.9348 42.8717C21.2025 42.8717 21.4196 42.6547 21.4196 42.3869V37.1744C21.419 36.9165 21.2174 36.7039 20.96 36.6896C12.0475 36.1989 3.36182 32.9217 3.36182 27.236V10.1711V10.1517C3.38509 3.98314 13.6492 0.651611 23.3103 0.651611C32.9713 0.651611 43.2452 3.98896 43.2433 10.1711V27.2263C43.2433 32.9081 34.5692 36.1854 25.6625 36.6799C25.4053 36.6923 25.2035 36.9052 25.2049 37.1627V42.3772C25.2049 42.645 25.4219 42.862 25.6897 42.862H35.6203C36.6436 42.8947 37.4562 43.7338 37.4562 44.7576C37.4562 45.7814 36.6436 46.6204 35.6203 46.6531H10.9925C9.96924 46.6204 9.15665 45.7814 9.15665 44.7576ZM23.3104 19.6926C17.7195 19.8711 12.1789 18.587 7.23641 15.9674V18.6998C7.23641 20.9997 13.5019 24.3409 23.3084 24.3409C33.1149 24.3409 39.3727 20.9997 39.3727 18.6998V15.9694C34.4338 18.587 28.8973 19.8704 23.3104 19.6926ZM23.3103 4.53C33.111 4.53 39.3649 7.86541 39.3746 10.1672V10.1827C39.3552 12.4846 33.1033 15.8064 23.3123 15.8064C13.5213 15.8064 7.23831 12.4729 7.23831 10.1711C7.23831 7.86929 13.4961 4.53 23.3103 4.53ZM7.24417 24.4961V27.2187L7.23641 27.2265C7.23641 29.5283 13.5039 32.8695 23.3104 32.8695C33.1169 32.8695 39.3747 29.5283 39.3747 27.2265V24.4961C34.435 27.1137 28.8979 28.3971 23.3104 28.2194C17.7222 28.3974 12.1844 27.114 7.24417 24.4961Z" fill="#0A102A"/>
<path d="M40.375 44.7567C40.3745 45.2595 40.5739 45.7419 40.9292 46.0976C41.2846 46.4533 41.7668 46.6532 42.2696 46.6532H44.1642C45.1875 46.6204 46.0001 45.7814 46.0001 44.7576C46.0001 43.7338 45.1875 42.8948 44.1642 42.8621H42.2696C41.767 42.8615 41.2848 43.061 40.9293 43.4164C40.5739 43.7718 40.3745 44.254 40.375 44.7567Z" fill="#0A102A"/>
<path d="M0.569337 44.7567C0.568822 45.2595 0.768203 45.7419 1.12356 46.0976C1.47892 46.4533 1.96112 46.6532 2.46393 46.6532H4.35852C5.38181 46.6204 6.19441 45.7814 6.19441 44.7576C6.19441 43.7338 5.38181 42.8948 4.35852 42.8621H2.46393C1.96129 42.8615 1.4791 43.061 1.12368 43.4164C0.768264 43.7718 0.568822 44.254 0.569337 44.7567Z" fill="#0A102A"/>
</svg>
