<svg width="16" height="11" viewBox="0 0 16 11" fill="none" xmlns="http://www.w3.org/2000/svg">
<path d="M7.98108 10.6667C7.53996 10.6672 7.11998 10.4656 6.82846 10.1131L0.288088 2.19908C-0.141846 1.65365 -0.084115 0.842599 0.418115 0.372357C0.920345 -0.097885 1.68337 -0.0553147 2.13667 0.468238L7.85575 7.38878C7.8874 7.42721 7.93307 7.44925 7.98108 7.44925C8.02909 7.44925 8.07476 7.42721 8.10641 7.38878L13.8255 0.468238C14.1126 0.103947 14.5626 -0.0662022 15.0013 0.0236322C15.44 0.113467 15.7985 0.44919 15.9382 0.900891C16.0779 1.35259 15.9768 1.8494 15.6741 2.19908L9.13569 10.1103C8.84368 10.4636 8.42313 10.6662 7.98108 10.6667Z" fill="#0A102A"/>
</svg>
