<svg width="19" height="19" viewBox="0 0 19 19" fill="none" xmlns="http://www.w3.org/2000/svg">
<path d="M12.4697 6.72911C12.7976 6.72911 13.0635 6.46328 13.0635 6.13537V3.56249C13.0635 3.23458 12.7976 2.96875 12.4697 2.96875C12.1418 2.96875 11.876 3.23458 11.876 3.56249V6.13537C11.876 6.29283 11.9385 6.44385 12.0499 6.5552C12.1612 6.66655 12.3122 6.72911 12.4697 6.72911V6.72911Z" fill="#0A102A"/>
<path d="M12.4684 8.90118C12.9056 8.90118 13.2601 8.54674 13.2601 8.10952C13.2601 7.67231 12.9056 7.31787 12.4684 7.31787C12.0312 7.31787 11.6768 7.67231 11.6768 8.10952C11.6768 8.54674 12.0312 8.90118 12.4684 8.90118Z" fill="#0A102A"/>
<path fill-rule="evenodd" clip-rule="evenodd" d="M17.4168 0C18.2912 0 19.0001 0.708871 19.0001 1.58331V10.2915C19.0001 11.1659 18.2912 11.8748 17.4168 11.8748H11.4113L8.87248 14.4136C8.64607 14.64 8.30563 14.7077 8.00985 14.5852C7.71407 14.4627 7.5212 14.1741 7.52113 13.8539V11.8748H7.1253C6.25086 11.8748 5.54199 11.1659 5.54199 10.2915V1.58331C5.54199 0.708871 6.25086 0 7.1253 0H17.4168ZM17.2192 10.2916C17.3285 10.2916 17.4171 10.203 17.4171 10.0937V1.7813C17.4171 1.67199 17.3285 1.58338 17.2192 1.58338H7.32352C7.21422 1.58338 7.12561 1.67199 7.12561 1.7813V10.0937C7.12561 10.203 7.21422 10.2916 7.32352 10.2916H8.31309C8.75031 10.2916 9.10474 10.646 9.10474 11.0832V11.943L10.5242 10.5235C10.6726 10.3751 10.8739 10.2916 11.0839 10.2916H17.2192Z" fill="#0A102A"/>
<path d="M2.77475 10.2916C3.97632 10.2894 4.94893 9.31415 4.94784 8.11257C4.94674 6.91099 3.97237 5.9375 2.77079 5.9375C1.56921 5.9375 0.594834 6.91099 0.593741 8.11257C0.592649 9.31415 1.56525 10.2894 2.76683 10.2916C1.23811 10.2938 -1.55992e-06 11.5337 0 13.0624V14.6457C0 14.8643 0.177218 15.0415 0.395827 15.0415H1.04577C1.14749 15.0414 1.23272 15.1184 1.2429 15.2196L1.58331 18.6435C1.60371 18.8466 1.77509 19.0008 1.97913 18.9998H3.56244C3.76648 19.0008 3.93787 18.8466 3.95827 18.6435L4.30026 15.2196C4.31037 15.119 4.39469 15.0422 4.4958 15.0415H5.14575C5.36436 15.0415 5.54158 14.8643 5.54158 14.6457V13.0624C5.54158 11.5337 4.30346 10.2938 2.77475 10.2916Z" fill="#0A102A"/>
</svg>
