<svg width="31" height="30" viewBox="0 0 31 30" fill="none" xmlns="http://www.w3.org/2000/svg">
<path fill-rule="evenodd" clip-rule="evenodd" d="M12.007 0.606648C11.9588 0.323848 12.1491 0.055576 12.4319 0.00744606C12.7147 -0.0406839 12.9829 0.149554 13.0311 0.432354L13.3878 2.52868C13.436 2.81148 13.2457 3.07975 12.9629 3.12788C12.6801 3.17601 12.4119 2.98577 12.3637 2.70297L12.007 0.606648ZM11.9137 5.76298C11.643 5.85794 11.5005 6.15436 11.5955 6.42506L12.2994 8.43164C12.3943 8.70234 12.6908 8.8448 12.9615 8.74984C13.2322 8.65489 13.3746 8.35847 13.2797 8.08777L12.5758 6.08118C12.4808 5.81049 12.1844 5.66803 11.9137 5.76298ZM5.81986 6.67605C5.62594 6.46465 5.6401 6.13608 5.8515 5.94216C6.06289 5.74824 6.39146 5.7624 6.58538 5.9738L8.02286 7.5408C8.21678 7.75219 8.20262 8.08077 7.99123 8.27469C7.77983 8.46861 7.45126 8.45444 7.25734 8.24305L5.81986 6.67605ZM10.9875 10.9044C10.5196 11.3722 10.5196 12.1308 10.9875 12.5986L12.5614 14.1725C13.0292 14.6404 13.7878 14.6404 14.2556 14.1725C14.7235 13.7046 14.7235 12.9461 14.2556 12.4782L12.6818 10.9044C12.2139 10.4365 11.4554 10.4365 10.9875 10.9044ZM5.64961 12.0329C5.54971 12.3018 5.68673 12.6007 5.95564 12.7006L7.94901 13.4411C8.21793 13.541 8.5169 13.404 8.6168 13.1351C8.71669 12.8662 8.57967 12.5672 8.31076 12.4673L6.31739 11.7268C6.04848 11.6269 5.7495 11.7639 5.64961 12.0329ZM6.63016 0.300257C6.4415 0.418541 6.38444 0.667374 6.50272 0.856041L7.73577 2.82279C7.85405 3.01146 8.10288 3.06852 8.29155 2.95023C8.48022 2.83195 8.53727 2.58311 8.41899 2.39445L7.18595 0.427698C7.06766 0.239031 6.81883 0.181973 6.63016 0.300257ZM0.521188 13.1571C0.238945 13.1058 0.0517264 12.8354 0.103024 12.5532C0.154321 12.2709 0.424709 12.0837 0.706952 12.135L2.79914 12.5153C3.08138 12.5666 3.2686 12.8369 3.21731 13.1192C3.16601 13.4014 2.89562 13.5886 2.61338 13.5374L0.521188 13.1571ZM0.325557 6.00372C0.151358 6.23164 0.194907 6.55762 0.422826 6.73182L2.11233 8.02311C2.34025 8.19731 2.66623 8.15376 2.84043 7.92584C3.01463 7.69792 2.97108 7.37194 2.74316 7.19774L1.05366 5.90645C0.825737 5.73225 0.499756 5.7758 0.325557 6.00372ZM0.553568 1.31928C0.36101 1.10664 0.377287 0.778166 0.589923 0.585609C0.802559 0.393051 1.13103 0.409328 1.32359 0.621964L2.75097 2.19818C2.94352 2.41081 2.92725 2.73929 2.71461 2.93185C2.50198 3.1244 2.1735 3.10813 1.98094 2.89549L0.553568 1.31928ZM19.4255 19.0956C19.8934 18.6278 19.8934 17.8692 19.4255 17.4013L17.8517 15.8275C17.3838 15.3596 16.6252 15.3596 16.1574 15.8275C15.6895 16.2953 15.6895 17.0539 16.1574 17.5218L17.7312 19.0956C18.1991 19.5635 18.9577 19.5635 19.4255 19.0956ZM24.4576 17.2993C24.7265 17.3992 24.8635 17.6981 24.7636 17.967C24.6637 18.236 24.3648 18.373 24.0959 18.2731L22.1025 17.5326C21.8336 17.4327 21.6966 17.1337 21.7965 16.8648C21.8963 16.5959 22.1953 16.4589 22.4642 16.5588L24.4576 17.2993ZM24.5618 24.0577C24.7732 23.8638 24.7873 23.5352 24.5934 23.3238L23.1559 21.7568C22.962 21.5455 22.6334 21.5313 22.422 21.7252C22.2107 21.9191 22.1965 22.2477 22.3904 22.4591L23.8279 24.0261C24.0218 24.2375 24.3504 24.2517 24.5618 24.0577ZM18.8178 23.5748C18.9127 23.8455 18.7702 24.142 18.4996 24.2369C18.2289 24.3319 17.9324 24.1894 17.8375 23.9187L17.1336 21.9121C17.0386 21.6414 17.1811 21.345 17.4518 21.2501C17.7225 21.1551 18.0189 21.2976 18.1139 21.5683L18.8178 23.5748ZM17.9814 29.9925C18.2642 29.9444 18.4544 29.6761 18.4063 29.3933L18.0495 27.297C18.0014 27.0142 17.7331 26.824 17.4503 26.8721C17.1675 26.9202 16.9773 27.1885 17.0254 27.4713L17.3822 29.5676C17.4303 29.8504 17.6986 30.0407 17.9814 29.9925ZM23.9105 29.1439C24.0288 29.3325 23.9718 29.5814 23.7831 29.6996C23.5944 29.8179 23.3456 29.7609 23.2273 29.5722L21.9943 27.6054C21.876 27.4168 21.9331 27.1679 22.1217 27.0497C22.3104 26.9314 22.5592 26.9884 22.6775 27.1771L23.9105 29.1439ZM30.3102 17.4467C30.3615 17.1645 30.1743 16.8941 29.8921 16.8428L27.7999 16.4625C27.5176 16.4112 27.2472 16.5985 27.1959 16.8807C27.1446 17.163 27.3319 17.4333 27.6141 17.4846L29.7063 17.8649C29.9885 17.9162 30.2589 17.729 30.3102 17.4467ZM29.9904 23.2679C30.2183 23.4421 30.2619 23.7681 30.0877 23.996C29.9135 24.2239 29.5875 24.2675 29.3596 24.0933L27.6701 22.802C27.4422 22.6278 27.3986 22.3018 27.5728 22.0739C27.747 21.846 28.073 21.8024 28.3009 21.9766L29.9904 23.2679ZM29.8233 29.4144C30.036 29.2218 30.0523 28.8933 29.8597 28.6807L28.4323 27.1045C28.2398 26.8919 27.9113 26.8756 27.6987 27.0681C27.486 27.2607 27.4697 27.5892 27.6623 27.8018L29.0897 29.378C29.2822 29.5907 29.6107 29.6069 29.8233 29.4144ZM17.8146 10.9874C18.2825 10.5195 19.041 10.5195 19.5089 10.9874C19.9768 11.4553 19.9768 12.2138 19.5089 12.6817L17.935 14.2555C17.4672 14.7234 16.7086 14.7234 16.2408 14.2555C15.7729 13.7877 15.7729 13.0291 16.2408 12.5613L17.8146 10.9874ZM18.3802 5.64947C18.1113 5.54958 17.8123 5.68659 17.7124 5.9555L16.9719 7.94888C16.872 8.21779 17.009 8.51676 17.2779 8.61666C17.5469 8.71655 17.8458 8.57954 17.9457 8.31062L18.6862 6.31725C18.7861 6.04834 18.6491 5.74936 18.3802 5.64947ZM23.7371 5.81972C23.9485 5.6258 24.2771 5.63996 24.471 5.85136C24.6649 6.06275 24.6507 6.39132 24.4394 6.58524L22.8724 8.02273C22.661 8.21665 22.3324 8.20248 22.1385 7.99109C21.9445 7.77969 21.9587 7.45112 22.1701 7.2572L23.7371 5.81972ZM24.6501 11.9136C24.5552 11.643 24.2588 11.5005 23.9881 11.5954L21.9815 12.2993C21.7108 12.3943 21.5683 12.6907 21.6633 12.9614C21.7582 13.2321 22.0547 13.3746 22.3254 13.2796L24.3319 12.5757C24.6026 12.4808 24.7451 12.1843 24.6501 11.9136ZM29.8133 12.0068C30.0961 11.9587 30.3643 12.1489 30.4125 12.4317C30.4606 12.7145 30.2703 12.9828 29.9875 13.0309L27.8912 13.3877C27.6084 13.4358 27.3402 13.2456 27.292 12.9628C27.2439 12.68 27.4341 12.4117 27.7169 12.3636L29.8133 12.0068ZM30.1196 6.62992C30.0013 6.44125 29.7525 6.38419 29.5638 6.50248L27.597 7.73552C27.4084 7.8538 27.3513 8.10263 27.4696 8.2913C27.5879 8.47997 27.8367 8.53703 28.0254 8.41874L29.9921 7.1857C30.1808 7.06742 30.2379 6.81858 30.1196 6.62992ZM17.2559 0.521072C17.3072 0.238829 17.5776 0.0516107 17.8598 0.102908C18.1421 0.154206 18.3293 0.424594 18.278 0.706836L17.8978 2.79903C17.8465 3.08127 17.5761 3.26849 17.2938 3.21719C17.0116 3.16589 16.8244 2.89551 16.8757 2.61326L17.2559 0.521072ZM24.4093 0.325441C24.1813 0.151242 23.8554 0.194791 23.6812 0.42271L22.3899 2.11221C22.2157 2.34013 22.2592 2.66611 22.4871 2.84031C22.7151 3.01451 23.041 2.97096 23.2152 2.74304L24.5065 1.05354C24.6807 0.825621 24.6372 0.49964 24.4093 0.325441ZM29.1006 0.553474C29.3132 0.360917 29.6417 0.377193 29.8343 0.589829C30.0268 0.802465 30.0105 1.13094 29.7979 1.3235L28.2217 2.75087C28.0091 2.94343 27.6806 2.92715 27.488 2.71452C27.2955 2.50188 27.3118 2.17341 27.5244 1.98085L29.1006 0.553474ZM10.9042 19.0124C11.3721 19.4803 12.1306 19.4803 12.5985 19.0124L14.1724 17.4386C14.6402 16.9707 14.6402 16.2121 14.1724 15.7443C13.7045 15.2764 12.946 15.2764 12.4781 15.7443L10.9042 17.3181C10.4364 17.786 10.4364 18.5445 10.9042 19.0124ZM12.7007 24.0443C12.6008 24.3132 12.3019 24.4502 12.0329 24.3503C11.764 24.2504 11.627 23.9515 11.7269 23.6826L12.4674 21.6892C12.5673 21.4203 12.8663 21.2833 13.1352 21.3831C13.4041 21.483 13.5411 21.782 13.4412 22.0509L12.7007 24.0443ZM5.94214 24.1484C6.13606 24.3598 6.46463 24.374 6.67602 24.1801L8.24303 22.7426C8.45442 22.5487 8.46859 22.2201 8.27466 22.0087C8.08074 21.7973 7.75217 21.7832 7.54078 21.9771L5.97377 23.4146C5.76238 23.6085 5.74822 23.9371 5.94214 24.1484ZM6.42506 18.4044C6.15436 18.4994 5.85794 18.3569 5.76299 18.0862C5.66803 17.8156 5.81049 17.5191 6.08119 17.4242L8.08777 16.7203C8.35847 16.6253 8.65489 16.7678 8.74984 17.0385C8.8448 17.3092 8.70234 17.6056 8.43164 17.7006L6.42506 18.4044ZM0.00744605 17.5681C0.055576 17.8509 0.323848 18.0411 0.606648 17.993L2.70297 17.6362C2.98577 17.5881 3.17601 17.3198 3.12788 17.037C3.07975 16.7542 2.81148 16.564 2.52868 16.6121L0.432354 16.9689C0.149554 17.017 -0.0406839 17.2853 0.00744605 17.5681ZM0.856108 23.4973C0.66744 23.6156 0.418607 23.5586 0.300324 23.3699C0.18204 23.1812 0.239097 22.9324 0.427764 22.8141L2.39451 21.5811C2.58318 21.4628 2.83201 21.5198 2.9503 21.7085C3.06858 21.8972 3.01152 22.146 2.82286 22.2643L0.856108 23.4973ZM12.5533 29.8969C12.8355 29.9482 13.1059 29.761 13.1572 29.4787L13.5375 27.3865C13.5888 27.1043 13.4015 26.8339 13.1193 26.7826C12.8371 26.7313 12.5667 26.9185 12.5154 27.2008L12.1351 29.293C12.0838 29.5752 12.271 29.8456 12.5533 29.8969ZM6.73197 29.5771C6.55777 29.805 6.23179 29.8486 6.00387 29.6744C5.77595 29.5002 5.73241 29.1742 5.9066 28.9463L7.19789 27.2568C7.37209 27.0288 7.69807 26.9853 7.92599 27.1595C8.15391 27.3337 8.19746 27.6597 8.02326 27.8876L6.73197 29.5771ZM0.585631 29.4101C0.778188 29.6227 1.10666 29.639 1.3193 29.4464L2.89551 28.019C3.10815 27.8265 3.12443 27.498 2.93187 27.2854C2.73931 27.0727 2.41084 27.0565 2.1982 27.249L0.621987 28.6764C0.409351 28.869 0.393074 29.1974 0.585631 29.4101Z" fill="white"/>
</svg>
