<svg width="24" height="25" viewBox="0 0 24 25" fill="none" xmlns="http://www.w3.org/2000/svg">
<path fill-rule="evenodd" clip-rule="evenodd" d="M12 0.396484C5.37258 0.396484 0 5.76907 0 12.3965C0 19.0239 5.37258 24.3965 12 24.3965C18.6274 24.3965 24 19.0239 24 12.3965C23.9928 5.77204 18.6244 0.403649 12 0.396484ZM12 19.3965C11.1716 19.3965 10.5 18.7249 10.5 17.8965C10.5 17.0681 11.1716 16.3965 12 16.3965C12.8284 16.3965 13.5 17.0681 13.5 17.8965C13.5 18.7249 12.8284 19.3965 12 19.3965ZM13 14.2335C12.9998 13.8357 13.2354 13.4756 13.6 13.3165V13.3175C15.431 12.5184 16.3916 10.4908 15.8504 8.56774C15.3092 6.64466 13.432 5.4158 11.453 5.689C9.47397 5.96221 7.99997 7.6537 8 9.65149C8 10.2038 8.44771 10.6515 9 10.6515C9.55229 10.6515 10 10.2038 10 9.65149C9.99949 8.65246 10.7362 7.80628 11.7258 7.66934C12.7154 7.53239 13.6543 8.14668 13.9251 9.10829C14.1959 10.0699 13.7156 11.0839 12.8 11.4835C11.7066 11.9607 10.9998 13.0405 11 14.2335C11 14.7858 11.4477 15.2335 12 15.2335C12.5523 15.2335 13 14.7858 13 14.2335Z" fill="#8A90AD"/>
</svg>
