<svg width="24" height="24" viewBox="0 0 24 24" fill="none" xmlns="http://www.w3.org/2000/svg">
<path d="M14.236 21H9.76401C9.63693 21.0002 9.53024 21.0957 9.51601 21.222C9.50511 21.3143 9.49977 21.4071 9.50001 21.5C9.50001 22.8807 10.6193 24 12 24C13.3807 24 14.5 22.8807 14.5 21.5C14.5002 21.4071 14.4949 21.3143 14.484 21.222C14.4707 21.0953 14.3634 20.9993 14.236 21Z" fill="#0A102A"/>
<path d="M21.446 19.276C20.3015 17.0011 19.7036 14.4906 19.7 11.944V11.176C19.7562 8.15115 18.3078 5.29554 15.834 3.554C15.1244 3.09656 14.331 2.78453 13.5 2.636V1.5C13.5 0.671573 12.8284 0 12 0C11.1715 0 10.5 0.671573 10.5 1.5V2.649C9.46271 2.84545 8.48613 3.28287 7.64896 3.926C5.48724 5.7069 4.25451 8.37554 4.29996 11.176V11.944C4.29632 14.4906 3.69847 17.0011 2.55396 19.276C2.47637 19.4308 2.48443 19.6148 2.57527 19.7622C2.6661 19.9097 2.82677 19.9996 2.99996 20H21C21.1734 19.9998 21.3344 19.9097 21.4253 19.762C21.5162 19.6142 21.524 19.4299 21.446 19.275V19.276Z" fill="#0A102A"/>
</svg>
