<svg width="16" height="17" viewBox="0 0 16 17" fill="none" xmlns="http://www.w3.org/2000/svg">
<path fill-rule="evenodd" clip-rule="evenodd" d="M13.5203 1.46811C12.7392 0.687062 11.4729 0.687062 10.6919 1.46811L8.89331 3.26667C8.11226 4.04772 8.11226 5.31405 8.89331 6.0951L10.6919 7.89366C11.4729 8.67471 12.7392 8.67471 13.5203 7.89366L15.3189 6.0951C16.0999 5.31405 16.0999 4.04772 15.3189 3.26667L13.5203 1.46811ZM2 2.85859C0.89543 2.85859 0 3.75402 0 4.85859V7.40213C0 8.5067 0.895431 9.40213 2 9.40213H4.54355C5.64812 9.40213 6.54355 8.5067 6.54355 7.40213V4.85858C6.54355 3.75402 5.64812 2.85859 4.54355 2.85859H2ZM2 10.3366C0.89543 10.3366 0 11.232 0 12.3366V14.8802C0 15.9847 0.895431 16.8802 2 16.8802H4.54355C5.64812 16.8802 6.54355 15.9847 6.54355 14.8802V12.3366C6.54355 11.232 5.64812 10.3366 4.54355 10.3366H2ZM7.47852 12.3366C7.47852 11.232 8.37395 10.3366 9.47852 10.3366H12.0221C13.1266 10.3366 14.0221 11.232 14.0221 12.3366V14.8802C14.0221 15.9847 13.1266 16.8802 12.0221 16.8802H9.47852C8.37395 16.8802 7.47852 15.9847 7.47852 14.8802V12.3366Z" fill="#0A102A"/>
</svg>
