<svg width="66" height="50" viewBox="0 0 66 50" fill="none" xmlns="http://www.w3.org/2000/svg">
<path d="M6.42045 19H1.2642V4.45455H6.46307C7.92614 4.45455 9.18561 4.74574 10.2415 5.32812C11.2973 5.90578 12.1094 6.73674 12.6776 7.82102C13.2505 8.9053 13.5369 10.2027 13.5369 11.7131C13.5369 13.2282 13.2505 14.5303 12.6776 15.6193C12.1094 16.7083 11.2926 17.544 10.2273 18.1264C9.16667 18.7088 7.89773 19 6.42045 19ZM4.33949 16.3651H6.29261C7.2017 16.3651 7.96638 16.2041 8.58665 15.8821C9.21165 15.5554 9.6804 15.0511 9.9929 14.3693C10.3101 13.6828 10.4688 12.7973 10.4688 11.7131C10.4688 10.6383 10.3101 9.75994 9.9929 9.07812C9.6804 8.39631 9.21402 7.89441 8.59375 7.57244C7.97348 7.25047 7.20881 7.08949 6.29972 7.08949H4.33949V16.3651ZM18.869 19.206C18.1729 19.206 17.5527 19.0852 17.0082 18.8438C16.4637 18.5975 16.0328 18.2353 15.7156 17.7571C15.4031 17.2741 15.2468 16.6728 15.2468 15.9531C15.2468 15.3471 15.3581 14.8381 15.5806 14.4261C15.8031 14.0142 16.1062 13.6828 16.4897 13.4318C16.8732 13.1809 17.3088 12.9915 17.7965 12.8636C18.2889 12.7358 18.805 12.6458 19.3448 12.5938C19.9793 12.5275 20.4906 12.4659 20.8789 12.4091C21.2672 12.3475 21.5489 12.2576 21.7241 12.1392C21.8993 12.0208 21.9869 11.8456 21.9869 11.6136V11.571C21.9869 11.1212 21.8448 10.7732 21.5607 10.527C21.2814 10.2808 20.8836 10.1577 20.3675 10.1577C19.823 10.1577 19.3898 10.2784 19.0678 10.5199C18.7459 10.7566 18.5328 11.0549 18.4286 11.4148L15.6303 11.1875C15.7724 10.5246 16.0517 9.9517 16.4684 9.46875C16.8851 8.98106 17.4225 8.60701 18.0806 8.34659C18.7435 8.08144 19.5105 7.94886 20.3817 7.94886C20.9878 7.94886 21.5678 8.01989 22.1218 8.16193C22.6805 8.30398 23.1753 8.52415 23.6062 8.82244C24.0418 9.12074 24.3851 9.50426 24.636 9.97301C24.887 10.437 25.0124 10.9934 25.0124 11.642V19H22.1431V17.4872H22.0579C21.8827 17.8281 21.6483 18.1288 21.3548 18.3892C21.0612 18.6449 20.7085 18.8461 20.2965 18.9929C19.8846 19.1349 19.4087 19.206 18.869 19.206ZM19.7354 17.1179C20.1805 17.1179 20.5735 17.0303 20.9144 16.8551C21.2553 16.6752 21.5228 16.4337 21.717 16.1307C21.9111 15.8277 22.0082 15.4844 22.0082 15.1009V13.9432C21.9135 14.0047 21.7833 14.0616 21.6175 14.1136C21.4566 14.161 21.2743 14.206 21.0707 14.2486C20.8671 14.2865 20.6635 14.322 20.4599 14.3551C20.2563 14.3835 20.0716 14.4096 19.9059 14.4332C19.5508 14.4853 19.2406 14.5682 18.9755 14.6818C18.7103 14.7955 18.5044 14.9493 18.3576 15.1435C18.2108 15.3329 18.1374 15.5696 18.1374 15.8537C18.1374 16.2656 18.2866 16.5805 18.5849 16.7983C18.8879 17.0114 19.2714 17.1179 19.7354 17.1179ZM36.4364 11.2017L33.6665 11.3722C33.6192 11.1354 33.5174 10.9223 33.3612 10.733C33.2049 10.5388 32.9989 10.3849 32.7433 10.2713C32.4923 10.1529 32.1916 10.0938 31.8413 10.0938C31.3725 10.0938 30.9772 10.1932 30.6552 10.392C30.3332 10.5862 30.1722 10.8466 30.1722 11.1733C30.1722 11.4337 30.2764 11.6539 30.4847 11.8338C30.6931 12.0137 31.0505 12.1581 31.5572 12.267L33.5316 12.6648C34.5922 12.8826 35.3829 13.233 35.9038 13.7159C36.4246 14.1989 36.685 14.8333 36.685 15.6193C36.685 16.3343 36.4743 16.9616 36.0529 17.5014C35.6362 18.0412 35.0633 18.4626 34.3342 18.7656C33.6097 19.0639 32.774 19.2131 31.8271 19.2131C30.3829 19.2131 29.2324 18.9124 28.3754 18.3111C27.5231 17.705 27.0236 16.8812 26.8768 15.8395L29.8526 15.6832C29.9426 16.1236 30.1604 16.4598 30.506 16.6918C30.8517 16.919 31.2944 17.0327 31.8342 17.0327C32.3645 17.0327 32.7906 16.9309 33.1126 16.7273C33.4393 16.5189 33.605 16.2514 33.6097 15.9247C33.605 15.6501 33.489 15.4252 33.2617 15.25C33.0344 15.0701 32.6841 14.9328 32.2106 14.8381L30.3214 14.4616C29.256 14.2486 28.4629 13.8793 27.9421 13.3537C27.426 12.8281 27.168 12.1581 27.168 11.3438C27.168 10.643 27.3574 10.0393 27.7362 9.53267C28.1197 9.02604 28.6571 8.63542 29.3484 8.3608C30.0444 8.08617 30.8588 7.94886 31.7915 7.94886C33.1694 7.94886 34.2537 8.24006 35.0444 8.82244C35.8398 9.40483 36.3039 10.1979 36.4364 11.2017ZM43.5618 19.2131C42.4396 19.2131 41.4737 18.9858 40.6641 18.5312C39.8591 18.072 39.2389 17.4233 38.8033 16.5852C38.3677 15.7424 38.1499 14.7457 38.1499 13.5952C38.1499 12.473 38.3677 11.4882 38.8033 10.6406C39.2389 9.79309 39.852 9.13258 40.6428 8.65909C41.4382 8.18561 42.371 7.94886 43.4411 7.94886C44.1607 7.94886 44.8307 8.06487 45.451 8.29688C46.076 8.52415 46.6205 8.86742 47.0845 9.3267C47.5533 9.78598 47.9179 10.3636 48.1783 11.0597C48.4387 11.7509 48.5689 12.5606 48.5689 13.4886V14.3196H39.3572V12.4446H45.7209C45.7209 12.009 45.6262 11.6231 45.4368 11.2869C45.2474 10.9508 44.9846 10.688 44.6484 10.4986C44.317 10.3045 43.9311 10.2074 43.4908 10.2074C43.0315 10.2074 42.6243 10.3139 42.2692 10.527C41.9188 10.7353 41.6442 11.017 41.4453 11.3722C41.2464 11.7225 41.1446 12.1132 41.1399 12.544V14.3267C41.1399 14.8665 41.2393 15.3329 41.4382 15.7259C41.6418 16.1188 41.9283 16.4219 42.2976 16.6349C42.6669 16.848 43.1049 16.9545 43.6115 16.9545C43.9477 16.9545 44.2554 16.9072 44.5348 16.8125C44.8142 16.7178 45.0533 16.5758 45.2521 16.3864C45.451 16.197 45.6025 15.965 45.7067 15.6903L48.505 15.875C48.3629 16.5473 48.0717 17.1345 47.6314 17.6364C47.1958 18.1335 46.6323 18.5218 45.9411 18.8011C45.2545 19.0758 44.4614 19.2131 43.5618 19.2131ZM59.62 11.2017L56.8501 11.3722C56.8028 11.1354 56.701 10.9223 56.5447 10.733C56.3885 10.5388 56.1825 10.3849 55.9268 10.2713C55.6759 10.1529 55.3752 10.0938 55.0249 10.0938C54.5561 10.0938 54.1607 10.1932 53.8388 10.392C53.5168 10.5862 53.3558 10.8466 53.3558 11.1733C53.3558 11.4337 53.46 11.6539 53.6683 11.8338C53.8767 12.0137 54.2341 12.1581 54.7408 12.267L56.7152 12.6648C57.7758 12.8826 58.5665 13.233 59.0874 13.7159C59.6082 14.1989 59.8686 14.8333 59.8686 15.6193C59.8686 16.3343 59.6579 16.9616 59.2365 17.5014C58.8198 18.0412 58.2469 18.4626 57.5178 18.7656C56.7933 19.0639 55.9576 19.2131 55.0107 19.2131C53.5665 19.2131 52.416 18.9124 51.5589 18.3111C50.7067 17.705 50.2071 16.8812 50.0604 15.8395L53.0362 15.6832C53.1262 16.1236 53.344 16.4598 53.6896 16.6918C54.0353 16.919 54.478 17.0327 55.0178 17.0327C55.5481 17.0327 55.9742 16.9309 56.2962 16.7273C56.6229 16.5189 56.7886 16.2514 56.7933 15.9247C56.7886 15.6501 56.6726 15.4252 56.4453 15.25C56.218 15.0701 55.8677 14.9328 55.3942 14.8381L53.505 14.4616C52.4396 14.2486 51.6465 13.8793 51.1257 13.3537C50.6096 12.8281 50.3516 12.1581 50.3516 11.3438C50.3516 10.643 50.541 10.0393 50.9197 9.53267C51.3033 9.02604 51.8407 8.63542 52.532 8.3608C53.228 8.08617 54.0424 7.94886 54.9751 7.94886C56.353 7.94886 57.4373 8.24006 58.228 8.82244C59.0234 9.40483 59.4875 10.1979 59.62 11.2017Z" fill="#0A102A"/>
<path d="M1.2642 39V24.4545H4.33949V36.4645H10.5753V39H1.2642ZM15.6658 39.206C14.9698 39.206 14.3496 39.0852 13.805 38.8438C13.2605 38.5975 12.8297 38.2353 12.5124 37.7571C12.1999 37.2741 12.0437 36.6728 12.0437 35.9531C12.0437 35.3471 12.1549 34.8381 12.3775 34.4261C12.6 34.0142 12.9031 33.6828 13.2866 33.4318C13.6701 33.1809 14.1057 32.9915 14.5934 32.8636C15.0858 32.7358 15.6019 32.6458 16.1417 32.5938C16.7762 32.5275 17.2875 32.4659 17.6758 32.4091C18.064 32.3475 18.3458 32.2576 18.521 32.1392C18.6961 32.0208 18.7837 31.8456 18.7837 31.6136V31.571C18.7837 31.1212 18.6417 30.7732 18.3576 30.527C18.0782 30.2808 17.6805 30.1577 17.1644 30.1577C16.6199 30.1577 16.1867 30.2784 15.8647 30.5199C15.5427 30.7566 15.3297 31.0549 15.2255 31.4148L12.4272 31.1875C12.5692 30.5246 12.8486 29.9517 13.2653 29.4688C13.6819 28.9811 14.2193 28.607 14.8775 28.3466C15.5404 28.0814 16.3074 27.9489 17.1786 27.9489C17.7847 27.9489 18.3647 28.0199 18.9187 28.1619C19.4774 28.304 19.9722 28.5241 20.4031 28.8224C20.8387 29.1207 21.1819 29.5043 21.4329 29.973C21.6838 30.437 21.8093 30.9934 21.8093 31.642V39H18.94V37.4872H18.8548C18.6796 37.8281 18.4452 38.1288 18.1516 38.3892C17.8581 38.6449 17.5053 38.8461 17.0934 38.9929C16.6815 39.1349 16.2056 39.206 15.6658 39.206ZM16.5323 37.1179C16.9774 37.1179 17.3704 37.0303 17.7113 36.8551C18.0522 36.6752 18.3197 36.4337 18.5138 36.1307C18.708 35.8277 18.805 35.4844 18.805 35.1009V33.9432C18.7103 34.0047 18.5801 34.0616 18.4144 34.1136C18.2534 34.161 18.0711 34.206 17.8675 34.2486C17.6639 34.2865 17.4603 34.322 17.2567 34.3551C17.0531 34.3835 16.8685 34.4096 16.7028 34.4332C16.3477 34.4853 16.0375 34.5682 15.7724 34.6818C15.5072 34.7955 15.3013 34.9493 15.1545 35.1435C15.0077 35.3329 14.9343 35.5696 14.9343 35.8537C14.9343 36.2656 15.0835 36.5805 15.3817 36.7983C15.6848 37.0114 16.0683 37.1179 16.5323 37.1179ZM24.2134 39V24.4545H27.239V29.9233H27.3313C27.4639 29.6297 27.6557 29.3314 27.9066 29.0284C28.1623 28.7206 28.4937 28.465 28.9009 28.2614C29.3129 28.053 29.8242 27.9489 30.435 27.9489C31.2305 27.9489 31.9644 28.1572 32.6367 28.5739C33.3091 28.9858 33.8465 29.6084 34.2489 30.4418C34.6514 31.2704 34.8526 32.3097 34.8526 33.5597C34.8526 34.7765 34.6561 35.804 34.2631 36.642C33.8749 37.4754 33.3446 38.1075 32.6722 38.5384C32.0046 38.9645 31.2565 39.1776 30.4279 39.1776C29.8408 39.1776 29.3413 39.0805 28.9293 38.8864C28.5221 38.6922 28.1883 38.4484 27.9279 38.1548C27.6675 37.8565 27.4686 37.5559 27.3313 37.2528H27.1964V39H24.2134ZM27.1751 33.5455C27.1751 34.1941 27.265 34.7599 27.445 35.2429C27.6249 35.7259 27.8853 36.1023 28.2262 36.3722C28.5671 36.6373 28.9814 36.7699 29.4691 36.7699C29.9615 36.7699 30.3782 36.6349 30.7191 36.3651C31.06 36.0904 31.3181 35.7116 31.4933 35.2287C31.6732 34.741 31.7631 34.1799 31.7631 33.5455C31.7631 32.9157 31.6755 32.3617 31.5004 31.8835C31.3252 31.4053 31.0671 31.0312 30.7262 30.7614C30.3853 30.4915 29.9663 30.3565 29.4691 30.3565C28.9767 30.3565 28.56 30.4867 28.2191 30.7472C27.8829 31.0076 27.6249 31.3769 27.445 31.8551C27.265 32.3333 27.1751 32.8968 27.1751 33.5455Z" fill="#8A90AD"/>
</svg>
