<svg width="61" height="48" viewBox="0 0 61 48" fill="none" xmlns="http://www.w3.org/2000/svg">
<path d="M5.15332 6.5918C6.65072 6.5918 8.00586 6.89128 9.21875 7.49023C10.4316 8.08919 11.3975 8.95768 12.1162 10.0957C12.835 11.2337 13.1943 12.6113 13.1943 14.2285C13.1943 15.3366 13.0072 16.3848 12.6328 17.373C12.2734 18.3464 11.7568 19.2074 11.083 19.9561C10.4092 20.7048 9.60059 21.2887 8.65723 21.708C7.71387 22.1273 6.6582 22.3369 5.49023 22.3369C4.80143 22.3369 4.06771 22.307 3.28906 22.2471C2.52539 22.2021 1.77669 22.1273 1.04297 22.0225C0.309245 21.9326 -0.364583 21.8278 -0.978516 21.708V7.2207C-0.0201823 7.05599 0.99056 6.91374 2.05371 6.79395C3.13184 6.65918 4.16504 6.5918 5.15332 6.5918ZM5.28809 10.5225C4.94368 10.5225 4.58431 10.5524 4.20996 10.6123C3.85059 10.6572 3.52116 10.7171 3.22168 10.792V18.1367C3.56608 18.2415 3.91797 18.3164 4.27734 18.3613C4.63672 18.3913 4.97363 18.4062 5.28809 18.4062C6.05176 18.4062 6.69564 18.234 7.21973 17.8896C7.75879 17.5303 8.17057 17.0511 8.45508 16.4521C8.73958 15.8532 8.88184 15.1868 8.88184 14.4531C8.88184 13.2852 8.56738 12.3418 7.93848 11.623C7.32454 10.8893 6.44108 10.5225 5.28809 10.5225ZM20.6289 10.5449C21.2728 10.5449 21.9242 10.7021 22.583 11.0166C23.2568 11.3161 23.8333 11.7354 24.3125 12.2744V10.7695H26.1543V22H24.3125V20.0908C23.9232 20.6898 23.3916 21.2139 22.7178 21.6631C22.0589 22.1123 21.3027 22.3369 20.4492 22.3369C19.4909 22.3369 18.6149 22.0973 17.8213 21.6182C17.0277 21.124 16.3913 20.4427 15.9121 19.5742C15.4479 18.7057 15.2158 17.7025 15.2158 16.5645C15.2158 15.3216 15.4479 14.251 15.9121 13.3525C16.3913 12.4541 17.0426 11.7653 17.8662 11.2861C18.6898 10.792 19.6107 10.5449 20.6289 10.5449ZM20.9658 12.3418C20.1572 12.3418 19.4684 12.5439 18.8994 12.9482C18.3304 13.3525 17.8887 13.8766 17.5742 14.5205C17.2747 15.1494 17.125 15.8307 17.125 16.5645C17.125 17.2832 17.2747 17.9495 17.5742 18.5635C17.8737 19.1624 18.293 19.6416 18.832 20.001C19.3861 20.3604 20.0225 20.54 20.7412 20.54C21.43 20.54 22.0439 20.3604 22.583 20.001C23.1221 19.6416 23.5488 19.1475 23.8633 18.5186C24.1777 17.8747 24.3275 17.1559 24.3125 16.3623L24.29 14.2061C23.8258 13.6221 23.3242 13.1654 22.7852 12.8359C22.2611 12.5065 21.6546 12.3418 20.9658 12.3418ZM33.3193 10.5449C33.9782 10.5449 34.5921 10.6423 35.1611 10.8369C35.7301 11.0166 36.1419 11.2038 36.3965 11.3984V13.375C36.082 13.1354 35.6553 12.9033 35.1162 12.6787C34.5771 12.4541 34.0231 12.3418 33.4541 12.3418C32.7503 12.3418 32.2188 12.5065 31.8594 12.8359C31.515 13.1654 31.3428 13.5098 31.3428 13.8691C31.3428 14.1536 31.4401 14.4456 31.6348 14.7451C31.8444 15.0296 32.2038 15.2617 32.7129 15.4414L34.5996 16.1152C35.3333 16.3698 35.8799 16.7367 36.2393 17.2158C36.5986 17.695 36.7783 18.2565 36.7783 18.9004C36.7783 19.5293 36.5986 20.1058 36.2393 20.6299C35.8949 21.154 35.4082 21.5732 34.7793 21.8877C34.1654 22.1872 33.4541 22.3369 32.6455 22.3369C32.2113 22.3369 31.7546 22.277 31.2754 22.1572C30.8112 22.0524 30.3919 21.9251 30.0176 21.7754C29.6432 21.6107 29.3662 21.4684 29.1865 21.3486V19.3721C29.3962 19.5218 29.6882 19.694 30.0625 19.8887C30.4518 20.0684 30.8636 20.2256 31.2979 20.3604C31.7321 20.4801 32.1364 20.54 32.5107 20.54C33.2145 20.54 33.7686 20.3828 34.1729 20.0684C34.5921 19.7539 34.8018 19.3646 34.8018 18.9004C34.8018 18.541 34.6595 18.2565 34.375 18.0469C34.1055 17.8372 33.7087 17.6351 33.1846 17.4404L31.5225 16.834C30.654 16.5046 30.0775 16.0928 29.793 15.5986C29.5085 15.0895 29.3662 14.513 29.3662 13.8691C29.3662 12.9108 29.7256 12.1172 30.4443 11.4883C31.1631 10.8594 32.1214 10.5449 33.3193 10.5449ZM44.2129 10.5449C45.3659 10.5449 46.3242 10.7845 47.0879 11.2637C47.8516 11.7428 48.4206 12.3942 48.7949 13.2178C49.1842 14.0413 49.3789 14.9697 49.3789 16.0029V17.1035H40.7539C40.8438 17.7324 41.0609 18.3089 41.4053 18.833C41.7497 19.3571 42.1989 19.7764 42.7529 20.0908C43.307 20.3903 43.9434 20.54 44.6621 20.54C45.4707 20.54 46.2269 20.3379 46.9307 19.9336C47.6344 19.5143 48.2259 19.0576 48.7051 18.5635L48.6826 20.5625C48.473 20.8171 48.1585 21.0866 47.7393 21.3711C47.335 21.6406 46.8633 21.8652 46.3242 22.0449C45.8001 22.2396 45.2461 22.3369 44.6621 22.3369C43.5241 22.3369 42.5133 22.0674 41.6299 21.5283C40.7464 20.9893 40.0501 20.278 39.541 19.3945C39.0469 18.4961 38.7998 17.5153 38.7998 16.4521C38.7998 15.389 39.0319 14.4082 39.4961 13.5098C39.9603 12.6113 40.5967 11.8926 41.4053 11.3535C42.2288 10.8145 43.1647 10.5449 44.2129 10.5449ZM44.2129 12.3418C43.2845 12.3418 42.5208 12.6562 41.9219 13.2852C41.3229 13.8991 40.9486 14.6478 40.7988 15.5312H47.5596C47.4847 14.7975 47.2751 14.1986 46.9307 13.7344C46.6012 13.2702 46.1969 12.9258 45.7178 12.7012C45.2386 12.4616 44.737 12.3418 44.2129 12.3418ZM55.7578 10.5449C56.4167 10.5449 57.0306 10.6423 57.5996 10.8369C58.1686 11.0166 58.5804 11.2038 58.835 11.3984V13.375C58.5205 13.1354 58.0938 12.9033 57.5547 12.6787C57.0156 12.4541 56.4616 12.3418 55.8926 12.3418C55.1888 12.3418 54.6572 12.5065 54.2979 12.8359C53.9535 13.1654 53.7812 13.5098 53.7812 13.8691C53.7812 14.1536 53.8786 14.4456 54.0732 14.7451C54.2829 15.0296 54.6423 15.2617 55.1514 15.4414L57.0381 16.1152C57.7718 16.3698 58.3184 16.7367 58.6777 17.2158C59.0371 17.695 59.2168 18.2565 59.2168 18.9004C59.2168 19.5293 59.0371 20.1058 58.6777 20.6299C58.3333 21.154 57.8467 21.5732 57.2178 21.8877C56.6038 22.1872 55.8926 22.3369 55.084 22.3369C54.6497 22.3369 54.193 22.277 53.7139 22.1572C53.2497 22.0524 52.8304 21.9251 52.4561 21.7754C52.0817 21.6107 51.8047 21.4684 51.625 21.3486V19.3721C51.8346 19.5218 52.1266 19.694 52.501 19.8887C52.8903 20.0684 53.3021 20.2256 53.7363 20.3604C54.1706 20.4801 54.5749 20.54 54.9492 20.54C55.653 20.54 56.207 20.3828 56.6113 20.0684C57.0306 19.7539 57.2402 19.3646 57.2402 18.9004C57.2402 18.541 57.098 18.2565 56.8135 18.0469C56.5439 17.8372 56.1471 17.6351 55.623 17.4404L53.9609 16.834C53.0924 16.5046 52.516 16.0928 52.2314 15.5986C51.9469 15.0895 51.8047 14.513 51.8047 13.8691C51.8047 12.9108 52.1641 12.1172 52.8828 11.4883C53.6016 10.8594 54.5599 10.5449 55.7578 10.5449Z" fill="#0A102A"/>
<path d="M3.22168 26.9512V38.2939H9.98242V42H-0.978516V26.9512H3.22168ZM17.8662 30.5449C18.5101 30.5449 19.1615 30.7021 19.8203 31.0166C20.4941 31.3161 21.0706 31.7354 21.5498 32.2744V30.7695H23.3916V42H21.5498V40.0908C21.1605 40.6898 20.6289 41.2139 19.9551 41.6631C19.2962 42.1123 18.54 42.3369 17.6865 42.3369C16.7282 42.3369 15.8522 42.0973 15.0586 41.6182C14.265 41.124 13.6286 40.4427 13.1494 39.5742C12.6852 38.7057 12.4531 37.7025 12.4531 36.5645C12.4531 35.3216 12.6852 34.251 13.1494 33.3525C13.6286 32.4541 14.2799 31.7653 15.1035 31.2861C15.9271 30.792 16.848 30.5449 17.8662 30.5449ZM18.2031 32.3418C17.3945 32.3418 16.7057 32.5439 16.1367 32.9482C15.5677 33.3525 15.126 33.8766 14.8115 34.5205C14.512 35.1494 14.3623 35.8307 14.3623 36.5645C14.3623 37.2832 14.512 37.9495 14.8115 38.5635C15.111 39.1624 15.5303 39.6416 16.0693 40.001C16.6234 40.3604 17.2598 40.54 17.9785 40.54C18.6673 40.54 19.2812 40.3604 19.8203 40.001C20.3594 39.6416 20.7861 39.1475 21.1006 38.5186C21.415 37.8747 21.5648 37.1559 21.5498 36.3623L21.5273 34.2061C21.0632 33.6221 20.5615 33.1654 20.0225 32.8359C19.4984 32.5065 18.8919 32.3418 18.2031 32.3418ZM32.7354 30.5449C33.7686 30.5449 34.6895 30.792 35.498 31.2861C36.3216 31.7653 36.9655 32.4541 37.4297 33.3525C37.9089 34.251 38.1484 35.3216 38.1484 36.5645C38.1484 37.7025 37.9089 38.7057 37.4297 39.5742C36.9655 40.4427 36.3366 41.124 35.543 41.6182C34.7643 42.0973 33.8883 42.3369 32.915 42.3369C32.0615 42.3369 31.2979 42.1123 30.624 41.6631C29.9652 41.2139 29.4411 40.6898 29.0518 40.0908V42H27.21V25.8281H29.0518V32.2744C29.5309 31.7354 30.0999 31.3161 30.7588 31.0166C31.4326 30.7021 32.0915 30.5449 32.7354 30.5449ZM32.3984 32.3643C31.7096 32.3643 31.1032 32.529 30.5791 32.8584C30.055 33.1729 29.5534 33.6221 29.0742 34.2061L29.0518 36.3623C29.0518 37.1559 29.2015 37.8672 29.501 38.4961C29.8154 39.125 30.2422 39.6191 30.7812 39.9785C31.3353 40.3379 31.9492 40.5176 32.623 40.5176C33.3568 40.5176 33.9932 40.3379 34.5322 39.9785C35.0713 39.6191 35.4906 39.14 35.79 38.541C36.0895 37.9421 36.2393 37.2832 36.2393 36.5645C36.2393 35.8307 36.082 35.1494 35.7676 34.5205C35.4681 33.8766 35.0339 33.36 34.4648 32.9707C33.8958 32.5664 33.207 32.3643 32.3984 32.3643Z" fill="#8A90AD"/>
</svg>
