<svg id="Calque_1" data-name="Calque 1" xmlns="http://www.w3.org/2000/svg" viewBox="0 0 307.07 307.07"><defs><style>.cls-1{fill:#0d132b;}.cls-2{fill:#ad6bb2;}.cls-3{fill:#44bfc6;}</style></defs><rect class="cls-1" width="307.07" height="307.07"/><path class="cls-1" d="M257.05,98.19,193.29,34.42a68.33,68.33,0,0,0-96.64,0h0L32.89,98.19a68.32,68.32,0,0,0,0,96.63h0l63.76,63.77a68.35,68.35,0,0,0,96.64,0h0l4.09-4.1h-.85V240.65h13.83v.87L235,216.85h-6.52v-18h18v6.52L257,194.91a68.3,68.3,0,0,0,.21-96.59ZM209.28,221h-9.34v-9.33h9.34Zm28.13-49.29H226.64V160.91h10.77ZM254.83,166V152.18h13.93V166Z"/><path class="cls-2" d="M106.38,208.27A31,31,0,0,1,95.63,189c-1.52-11.48,3.48-24.07,15.12-37.45C132,127,131.25,104.3,128.88,93s-8.43-21.24-15.55-25.4c5,.14,21.66,1.74,32.86,15.15,10,12.07,13,30.36,9,54.38a87.55,87.55,0,0,0-2.28-12.85c-2-7.75-5.92-18-13.46-23.1l-1.36-.94a62.65,62.65,0,0,1,5.76,17.26,43.27,43.27,0,0,1-.13,14.93,32.87,32.87,0,0,1-7.41,15.29A141.6,141.6,0,0,1,123.1,160.6C109.11,173.09,95.87,184.91,106.38,208.27Z"/><path class="cls-3" d="M149.89,239.45a30,30,0,0,1-4.9-5.23,35.35,35.35,0,0,1-6.83-17.1,34.4,34.4,0,0,1,8-26.13,106.25,106.25,0,0,0,19.75-35.22l.42-1.25-1,.87A58,58,0,0,1,156,161.9c-28.53,16.38-41,35.69-39.19,60.6a55.77,55.77,0,0,1-2.93-15.34,47.33,47.33,0,0,1,13.62-36,102.53,102.53,0,0,1,26.64-19.68,36.26,36.26,0,0,0,18.67-35.26A42.17,42.17,0,0,0,166,98a130.7,130.7,0,0,1,17.56,22.47A86.23,86.23,0,0,1,194.32,146a53.37,53.37,0,0,1-1.15,29.35l-.42,1.24,1-.84a43.19,43.19,0,0,0,12.46-19.16,65.65,65.65,0,0,1-1.13,11.78,57.2,57.2,0,0,1-13.8,28.14l-1.22,1.43s8.71-4.82,17-4.82a25.2,25.2,0,0,1,4.67.43c-2.56,1.74-11.35,7.6-20.18,14.72-13.23,10.64-20.66,19.16-22.14,25.24a61.17,61.17,0,0,1-3.68-12.19c-1.32-7-1.11-18.4,4.08-26.86l-1.19.78a31.68,31.68,0,0,0-8.71,9.55C155.88,211,150.9,222,149.89,239.45Z"/><rect class="cls-1" x="275.31" y="218.42" width="13.85" height="13.85"/><rect class="cls-1" x="246.8" y="247.93" width="12.38" height="12.38"/><rect class="cls-1" x="282.83" y="254.27" width="7.4" height="7.4"/><rect class="cls-1" x="286.72" y="189.7" width="7.4" height="7.4"/></svg>