<svg width="57" height="57" viewBox="0 0 57 57" fill="none" xmlns="http://www.w3.org/2000/svg">
<circle cx="28.5" cy="28.5" r="28.5" fill="#EAEFF0"/>
<path d="M27.046 18.431C26.762 18.246 26.4037 18.2174 26.094 18.355L22.2 20.085C22.0456 20.1524 21.8677 20.1375 21.7267 20.0454C21.5856 19.9533 21.5004 19.7964 21.5 19.628V17C21.5 16.4477 21.0523 16 20.5 16C19.9477 16 19.5 16.4477 19.5 17V20.962C19.4991 21.16 19.3815 21.3388 19.2 21.418L18.1 21.911C17.7364 22.0697 17.501 22.4283 17.5 22.825V39C17.5 39.5523 17.9477 40 18.5 40H20.5C20.7761 40 21 39.7761 21 39.5V37C21 36.7239 21.2239 36.5 21.5 36.5H23.5C23.7761 36.5 24 36.7239 24 37V39.5C24 39.7761 24.2239 40 24.5 40H26.5C27.0523 40 27.5 39.5523 27.5 39V32C27.5 31.7239 27.2761 31.5 27 31.5H22C21.5858 31.5 21.25 31.1642 21.25 30.75C21.25 30.3358 21.5858 30 22 30H27C27.2761 30 27.5 29.7761 27.5 29.5V28C27.5 27.7239 27.2761 27.5 27 27.5H24C23.5858 27.5 23.25 27.1642 23.25 26.75C23.25 26.3358 23.5858 26 24 26H27C27.2761 26 27.5 25.7761 27.5 25.5V24C27.5 23.7239 27.2761 23.5 27 23.5H25C24.5858 23.5 24.25 23.1642 24.25 22.75C24.25 22.3358 24.5858 22 25 22H27C27.2761 22 27.5 21.7761 27.5 21.5V19.27C27.5004 18.9315 27.3296 18.6158 27.046 18.431Z" fill="#0A102A" fill-opacity="0.21"/>
<path d="M36.2351 25.628C36.3899 25.7247 36.585 25.7295 36.7443 25.6404C36.9035 25.5513 37.0016 25.3825 37.0001 25.2V22.5C37.0001 22.2239 36.7763 22 36.5001 22H31.5001C31.3633 22.0001 31.2431 22.0907 31.2053 22.2222C31.1675 22.3536 31.2213 22.4943 31.3371 22.567L36.2351 25.628Z" fill="#0A102A" fill-opacity="0.21"/>
<path d="M38.029 28.5268L31.029 24.1528C30.7209 23.9608 30.333 23.9508 30.0154 24.1267C29.6979 24.3026 29.5006 24.6368 29.5 24.9998V27.4998C29.5 27.776 29.7239 27.9998 30 27.9998H32C32.4142 27.9998 32.75 28.3356 32.75 28.7498C32.75 29.1641 32.4142 29.4998 32 29.4998H30C29.7239 29.4998 29.5 29.7237 29.5 29.9998V31.4998C29.5 31.776 29.7239 31.9998 30 31.9998H34C34.4142 31.9998 34.75 32.3356 34.75 32.7498C34.75 33.1641 34.4142 33.4998 34 33.4998H30C29.7239 33.4998 29.5 33.7237 29.5 33.9998V38.9998C29.5 39.5521 29.9477 39.9998 30.5 39.9998H32C32.2761 39.9998 32.5 39.776 32.5 39.4998V36.4998C32.5 36.2237 32.7239 35.9998 33 35.9998H35C35.2761 35.9998 35.5 36.2237 35.5 36.4998V39.4998C35.5 39.776 35.7239 39.9998 36 39.9998H37.5C38.0523 39.9998 38.5 39.5521 38.5 38.9998V29.3748C38.5011 29.0295 38.3228 28.7084 38.029 28.5268V28.5268Z" fill="#0A102A" fill-opacity="0.21"/>
</svg>
